<svg width="32" height="32" viewBox="0 0 32 32" fill="none" xmlns="http://www.w3.org/2000/svg">
<path d="M17.3484 27.9998C17.1122 27.9933 16.8819 27.9242 16.6811 27.7996L8.29385 22.6618H1.33449C0.980561 22.6618 0.641128 22.5212 0.390863 22.2709C0.140598 22.0207 0 21.6813 0 21.3273V10.6514C0 10.2975 0.140598 9.95804 0.390863 9.70778C0.641128 9.45751 0.980561 9.31692 1.33449 9.31692H8.29385L16.6811 4.17913C16.8824 4.06287 17.1106 4.00121 17.3431 4.00026C17.5755 3.9993 17.8042 4.05909 18.0065 4.1737C18.2087 4.28831 18.3775 4.45376 18.4961 4.65367C18.6148 4.85358 18.6791 5.08101 18.6829 5.31345V26.6653C18.6829 27.0192 18.5423 27.3586 18.292 27.6089C18.0417 27.8592 17.7023 27.9998 17.3484 27.9998ZM2.66898 19.9928H8.67418C8.92177 19.9933 9.16434 20.0626 9.37479 20.193L16.0472 24.2765V7.70218L9.37479 11.7857C9.16434 11.9161 8.92177 11.9855 8.67418 11.9859H2.66898V19.9928Z" fill="#72569D"/>
<path d="M28.0243 24.3033C27.8876 24.3046 27.752 24.2781 27.6258 24.2253C27.4996 24.1726 27.3855 24.0947 27.2904 23.9964C27.1968 23.9039 27.1224 23.7937 27.0717 23.6723C27.021 23.5509 26.9949 23.4207 26.9949 23.2891C26.9949 23.1575 27.021 23.0272 27.0717 22.9058C27.1224 22.7844 27.1968 22.6743 27.2904 22.5818C28.1579 21.7144 28.8461 20.6845 29.3156 19.5511C29.7851 18.4177 30.0267 17.2029 30.0267 15.9761C30.0267 14.7493 29.7851 13.5345 29.3156 12.401C28.8461 11.2676 28.1579 10.2378 27.2904 9.37035C27.1556 9.17693 27.0934 8.94215 27.1148 8.70738C27.1361 8.4726 27.2397 8.25291 27.4072 8.08701C27.5747 7.92111 27.7954 7.81966 28.0303 7.80054C28.2653 7.78142 28.4995 7.84585 28.6916 7.98248C30.8104 10.1086 32.0001 12.9878 32.0001 15.9894C32.0001 18.991 30.8104 21.8702 28.6916 23.9964C28.5157 24.179 28.2775 24.2886 28.0243 24.3033Z" fill="#72569D"/>
<path d="M24.6881 21.0004C24.4368 20.9893 24.1988 20.8846 24.0208 20.7068C23.8419 20.5215 23.7418 20.2739 23.7418 20.0162C23.7418 19.7586 23.8419 19.511 24.0208 19.3256C24.4546 18.8919 24.7987 18.377 25.0334 17.8103C25.2682 17.2436 25.389 16.6362 25.389 16.0228C25.389 15.4094 25.2682 14.802 25.0334 14.2353C24.7987 13.6686 24.4546 13.1536 24.0208 12.7199C23.844 12.5302 23.7478 12.2792 23.7524 12.02C23.7569 11.7607 23.862 11.5133 24.0454 11.3299C24.2287 11.1465 24.4761 11.0415 24.7354 11.0369C24.9947 11.0323 25.2457 11.1286 25.4354 11.3054C26.6863 12.5566 27.389 14.2535 27.389 16.0228C27.389 17.7921 26.6863 19.4889 25.4354 20.7402C25.3348 20.8318 25.2168 20.902 25.0883 20.9468C24.9599 20.9915 24.8238 21.0097 24.6881 21.0004Z" fill="#72569D"/>
</svg>
