<svg width="32" height="32" viewBox="0 0 32 32" fill="none" xmlns="http://www.w3.org/2000/svg">
<path d="M25.4805 29.853C25.5085 29.8272 25.5331 29.7981 25.5539 29.7663L25.6272 29.6396C25.6272 29.6396 25.6672 29.573 25.6805 29.5397C25.6938 29.5063 25.6805 29.473 25.6805 29.433L25.7272 29.293C25.7305 29.2642 25.7305 29.2351 25.7272 29.2063C25.7304 29.1464 25.7304 29.0863 25.7272 29.0264C25.7305 28.9864 25.7305 28.9463 25.7272 28.9064C25.7307 28.8642 25.7307 28.8219 25.7272 28.7797L24.9406 24.6201C24.8311 23.9815 24.5666 23.3795 24.1703 22.867C23.774 22.3544 23.2579 21.9469 22.6674 21.6803L17.8145 19.6005C18.2266 18.8197 18.4417 17.9501 18.4411 17.0673V13.9143C18.4411 13.1872 18.2975 12.4673 18.0184 11.7958C17.7394 11.1244 17.3304 10.5148 16.8151 10.0019C16.2997 9.48901 15.6881 9.083 15.0153 8.80719C14.3426 8.53138 13.622 8.39121 12.8949 8.39472C11.431 8.39472 10.0271 8.97624 8.99199 10.0114C7.95687 11.0465 7.37535 12.4504 7.37535 13.9143V17.0607C7.37479 17.9435 7.5899 18.8131 8.00196 19.5938L3.14903 21.6803C2.55145 21.936 2.02602 22.335 1.61912 22.8418C1.21222 23.3487 0.936358 23.948 0.815887 24.5867L0.00262021 28.7464C-0.000873402 28.7885 -0.000873402 28.8309 0.00262021 28.873C-0.000657749 28.913 -0.000657749 28.9531 0.00262021 28.993C-0.000648079 29.053 -0.000648079 29.1131 0.00262021 29.173C-0.000684651 29.2018 -0.000684651 29.2309 0.00262021 29.2597L0.049283 29.3997C0.049283 29.4397 0.049283 29.473 0.0826136 29.5063C0.115944 29.5397 0.12261 29.573 0.135943 29.6063L0.20927 29.733C0.23004 29.7648 0.25467 29.7939 0.282597 29.8196C0.307732 29.8581 0.336773 29.8938 0.369257 29.9263C0.398684 29.9549 0.429852 29.9816 0.462583 30.0063L0.56924 30.0929L0.6559 30.1396L0.795889 30.2129H0.869216L1.05587 30.2663C1.13126 30.2731 1.20712 30.2731 1.28252 30.2663H24.4739C24.5493 30.2731 24.6252 30.2731 24.7006 30.2663L24.8872 30.2129H24.9606L25.1006 30.1396L25.1872 30.0929L25.2939 30.0063C25.3279 29.9833 25.3592 29.9564 25.3872 29.9263C25.4204 29.9047 25.4517 29.8801 25.4805 29.853ZM10.0418 13.9143C10.0418 13.1576 10.3424 12.4319 10.8775 11.8968C11.4125 11.3618 12.1382 11.0612 12.8949 11.0612C13.6516 11.0612 14.3773 11.3618 14.9123 11.8968C15.4474 12.4319 15.748 13.1576 15.748 13.9143V17.0607C15.748 17.8174 15.4474 18.5431 14.9123 19.0781C14.3773 19.6132 13.6516 19.9138 12.8949 19.9138C12.1382 19.9138 11.4125 19.6132 10.8775 19.0781C10.3424 18.5431 10.0418 17.8174 10.0418 17.0607V13.9143ZM3.43567 25.06C3.4741 24.8517 3.56365 24.6561 3.69628 24.4909C3.82892 24.3257 4.00049 24.196 4.19561 24.1134L9.65516 21.7736C9.7298 21.7402 9.8012 21.7001 9.86848 21.6536C10.7661 22.2471 11.8188 22.5625 12.8949 22.5602C13.9709 22.5625 15.0237 22.2471 15.9213 21.6536C15.9886 21.7001 16.06 21.7402 16.1346 21.7736L21.5942 24.1134C21.7893 24.196 21.9609 24.3257 22.0935 24.4909C22.2261 24.6561 22.3157 24.8517 22.3541 25.06L22.8474 27.6665H2.94238L3.43567 25.06Z" fill="#72569D"/>
<path d="M25.6804 1.72864C24.4321 1.72996 23.2123 2.10132 22.175 2.79578C21.1378 3.49024 20.3297 4.47663 19.8529 5.63026C19.3761 6.78389 19.252 8.05298 19.4964 9.27711C19.7407 10.5012 20.3425 11.6254 21.2256 12.5076C22.1087 13.3898 23.2336 13.9904 24.458 14.2335C25.6824 14.4765 26.9513 14.3511 28.1044 13.8731C29.2576 13.3951 30.2431 12.586 30.9365 11.548C31.6298 10.51 31.9999 9.28973 31.9999 8.04146C31.9999 7.21189 31.8364 6.39045 31.5187 5.62411C31.2011 4.85777 30.7355 4.16155 30.1486 3.57526C29.5617 2.98898 28.865 2.52412 28.0983 2.20726C27.3316 1.8904 26.51 1.72777 25.6804 1.72864ZM29.1735 6.70823L25.7204 10.1613C25.6279 10.2545 25.5178 10.3284 25.3965 10.3787C25.2752 10.429 25.1451 10.4548 25.0138 10.4546C24.7488 10.4536 24.495 10.3482 24.3072 10.1613L22.1874 8.04146C22.0107 7.85191 21.9146 7.6012 21.9192 7.34215C21.9237 7.0831 22.0287 6.83594 22.2119 6.65274C22.3951 6.46954 22.6422 6.3646 22.9013 6.36003C23.1603 6.35546 23.411 6.45161 23.6006 6.62824L25.0138 8.04146L27.7602 5.29502C27.8518 5.19677 27.9622 5.11798 28.0848 5.06333C28.2075 5.00868 28.3399 4.97929 28.4742 4.97692C28.6084 4.97455 28.7418 4.99925 28.8663 5.04954C28.9908 5.09983 29.1039 5.17468 29.1988 5.26963C29.2938 5.36458 29.3687 5.47769 29.4189 5.60219C29.4692 5.7267 29.4939 5.86006 29.4916 5.99432C29.4892 6.12858 29.4598 6.26099 29.4052 6.38364C29.3505 6.5063 29.2717 6.61669 29.1735 6.70823Z" fill="#72569D"/>
</svg>
