<svg width="32" height="32" viewBox="0 0 32 32" fill="none" xmlns="http://www.w3.org/2000/svg">
<g clip-path="url(#clip0_43_5117)">
<path d="M16.4733 8.66488C17.3938 8.66488 18.14 7.91868 18.14 6.99821C18.14 6.07774 17.3938 5.33154 16.4733 5.33154C15.5528 5.33154 14.8066 6.07774 14.8066 6.99821C14.8066 7.91868 15.5528 8.66488 16.4733 8.66488Z" fill="#72569D"/>
<path d="M31.02 10.7115L23.28 8.57154C23.4011 8.05562 23.4659 7.5281 23.4733 6.99821C23.4728 5.91198 23.2195 4.84077 22.7334 3.86936C22.2473 2.89795 21.5419 2.05299 20.6728 1.40133C19.8038 0.749666 18.795 0.309193 17.7263 0.114762C16.6576 -0.0796704 15.5583 -0.0227264 14.5155 0.281088C13.4726 0.584902 12.5147 1.12725 11.7177 1.86522C10.9206 2.60318 10.3062 3.51652 9.92313 4.53295C9.54003 5.54939 9.39875 6.64103 9.51044 7.72151C9.62214 8.80198 9.98375 9.84163 10.5667 10.7582L11.84 12.6982L10.8133 13.2382L1.68667 10.7115C1.48869 10.6571 1.28081 10.6492 1.07925 10.6883C0.877692 10.7274 0.687891 10.8126 0.524645 10.9371C0.361399 11.0616 0.229118 11.2222 0.138115 11.4062C0.0471126 11.5903 -0.000153957 11.7929 3.76771e-07 11.9982V27.9982C-0.000219231 28.2904 0.0955687 28.5746 0.272632 28.8071C0.449694 29.0396 0.698226 29.2074 0.98 29.2849L10.6133 31.9515C10.7306 31.9834 10.8518 31.9991 10.9733 31.9982C11.1894 31.9981 11.4021 31.9455 11.5933 31.8449L21.1867 26.7582L30.3133 29.2849C30.5113 29.3393 30.7192 29.3472 30.9207 29.3081C31.1223 29.269 31.3121 29.1838 31.4754 29.0593C31.6386 28.9348 31.7709 28.7742 31.8619 28.5902C31.9529 28.4061 32.0002 28.2035 32 27.9982V11.9982C32.0002 11.706 31.9044 11.4218 31.7274 11.1893C31.5503 10.9568 31.3018 10.789 31.02 10.7115ZM10 29.0049L2.66667 27.0049V13.7515L10 15.7515V29.0049ZM16.4733 2.66487C17.2518 2.66214 18.0167 2.86918 18.6875 3.26423C19.3583 3.65927 19.9103 4.22774 20.2855 4.90987C20.6606 5.59199 20.8451 6.36259 20.8195 7.14067C20.7939 7.91874 20.5592 8.67555 20.14 9.33154L16.4733 14.9249L12.8067 9.33154C12.3898 8.67511 12.1569 7.91872 12.1325 7.14149C12.108 6.36425 12.2928 5.59471 12.6675 4.91335C13.0423 4.23198 13.5932 3.66382 14.2627 3.26827C14.9322 2.87273 15.6957 2.66433 16.4733 2.66487ZM12 28.6249V15.6449L13.3333 14.9382L15.3333 18.0649C15.4548 18.2492 15.6201 18.4004 15.8144 18.5051C16.0087 18.6098 16.226 18.6645 16.4467 18.6645C16.6674 18.6645 16.8846 18.6098 17.0789 18.5051C17.2733 18.4004 17.4386 18.2492 17.56 18.0649L20 14.3449V24.3449L12 28.6249ZM29.3333 26.2449L22 24.2449V11.2915L22.1667 11.0382L29.3067 13.0382L29.3333 26.2449Z" fill="#72569D"/>
</g>
<defs>
<clipPath id="clip0_43_5117">
<rect width="32" height="32" fill="white"/>
</clipPath>
</defs>
</svg>
