<svg width="32" height="32" viewBox="0 0 32 32" fill="none" xmlns="http://www.w3.org/2000/svg">
<path d="M30.6667 11.6666H29.3333V9.77996C29.3333 8.95425 29.0053 8.16236 28.4215 7.5785C27.8376 6.99464 27.0457 6.66663 26.22 6.66663H3.11333C2.28763 6.66663 1.49574 6.99464 0.911874 7.5785C0.328011 8.16236 0 8.95425 0 9.77996L0 22.22C0 23.0457 0.328011 23.8376 0.911874 24.4214C1.49574 25.0053 2.28763 25.3333 3.11333 25.3333H26.22C27.0457 25.3333 27.8376 25.0053 28.4215 24.4214C29.0053 23.8376 29.3333 23.0457 29.3333 22.22V20.3333H30.6667C31.0203 20.3333 31.3594 20.1928 31.6095 19.9428C31.8595 19.6927 32 19.3536 32 19V13C32 12.6463 31.8595 12.3072 31.6095 12.0572C31.3594 11.8071 31.0203 11.6666 30.6667 11.6666ZM26.6667 22.22C26.6667 22.3384 26.6196 22.452 26.5358 22.5358C26.4521 22.6196 26.3385 22.6666 26.22 22.6666H3.11333C2.99487 22.6666 2.88126 22.6196 2.79749 22.5358C2.71373 22.452 2.66667 22.3384 2.66667 22.22V9.77996C2.66667 9.6615 2.71373 9.54788 2.79749 9.46412C2.88126 9.38035 2.99487 9.33329 3.11333 9.33329H26.22C26.3385 9.33329 26.4521 9.38035 26.5358 9.46412C26.6196 9.54788 26.6667 9.6615 26.6667 9.77996V22.22Z" fill="#72569D"/>
<path d="M6.09334 11.3333C5.73972 11.3333 5.40058 11.4737 5.15053 11.7238C4.90049 11.9738 4.76001 12.313 4.76001 12.6666V19.3333C4.76001 19.6869 4.90049 20.026 5.15053 20.2761C5.40058 20.5261 5.73972 20.6666 6.09334 20.6666C6.44697 20.6666 6.7861 20.5261 7.03615 20.2761C7.2862 20.026 7.42668 19.6869 7.42668 19.3333V12.6666C7.42668 12.313 7.2862 11.9738 7.03615 11.7238C6.7861 11.4737 6.44697 11.3333 6.09334 11.3333Z" fill="#72569D"/>
<path d="M10.4267 11.3333C10.0731 11.3333 9.73396 11.4737 9.48391 11.7238C9.23386 11.9738 9.09338 12.313 9.09338 12.6666V19.3333C9.09338 19.6869 9.23386 20.026 9.48391 20.2761C9.73396 20.5261 10.0731 20.6666 10.4267 20.6666C10.7803 20.6666 11.1195 20.5261 11.3695 20.2761C11.6196 20.026 11.76 19.6869 11.76 19.3333V12.6666C11.76 12.313 11.6196 11.9738 11.3695 11.7238C11.1195 11.4737 10.7803 11.3333 10.4267 11.3333Z" fill="#72569D"/>
<path d="M14.76 11.3333C14.4063 11.3333 14.0672 11.4737 13.8172 11.7238C13.5671 11.9738 13.4266 12.313 13.4266 12.6666V19.3333C13.4266 19.6869 13.5671 20.026 13.8172 20.2761C14.0672 20.5261 14.4063 20.6666 14.76 20.6666C15.1136 20.6666 15.4527 20.5261 15.7028 20.2761C15.9528 20.026 16.0933 19.6869 16.0933 19.3333V12.6666C16.0933 12.313 15.9528 11.9738 15.7028 11.7238C15.4527 11.4737 15.1136 11.3333 14.76 11.3333Z" fill="#72569D"/>
</svg>
