<svg width="32" height="32" viewBox="0 0 32 32" fill="none" xmlns="http://www.w3.org/2000/svg">
<path d="M4.2396 32C4.00791 31.9974 3.78088 31.9346 3.58086 31.8176C3.38085 31.7006 3.21475 31.5336 3.09891 31.3329C2.96234 31.1187 2.8898 30.8699 2.8898 30.6158C2.8898 30.3618 2.96234 30.113 3.09891 29.8987C3.80155 28.9228 4.28461 27.8064 4.5149 26.6261C4.7452 25.4458 4.71728 24.2297 4.43305 23.0612C2.56228 20.571 1.55728 17.5373 1.57131 14.4227C1.5726 11.3942 2.52677 8.44285 4.29868 5.98682C6.07058 3.53078 8.57036 1.69455 11.4439 0.73824C14.3174 -0.218067 17.419 -0.245961 20.3093 0.658512C23.1996 1.56299 25.732 3.35397 27.5478 5.77774C29.3635 8.20151 30.3707 11.1352 30.4264 14.1632C30.4822 17.1911 29.5837 20.1599 27.8584 22.6489C26.1331 25.1378 23.6683 27.0208 20.8133 28.0311C17.9583 29.0413 14.8577 29.1276 11.951 28.2777C9.99892 30.4375 7.29501 31.7691 4.39303 32H4.2396ZM16.0068 2.64883C12.8858 2.65236 9.89386 3.89416 7.68766 6.10161C5.48147 8.30905 4.24137 11.3017 4.2396 14.4227C4.23185 17.0526 5.11341 19.608 6.74112 21.6737C6.85708 21.8166 6.94123 21.9827 6.98794 22.1607C7.57917 24.3233 7.48831 26.6157 6.72778 28.7247C8.20488 28.1883 9.48586 27.2188 10.4033 25.943C10.5734 25.7068 10.816 25.5326 11.0942 25.4471C11.3724 25.3616 11.6709 25.3694 11.9443 25.4694C13.5598 26.0651 15.2862 26.2992 17.002 26.1553C18.7178 26.0113 20.3811 25.4928 21.8748 24.6363C23.3684 23.7797 24.656 22.606 25.6468 21.1978C26.6376 19.7897 27.3075 18.1813 27.6093 16.4862C27.9111 14.791 27.8374 13.0503 27.3934 11.3867C26.9494 9.72311 26.146 8.17715 25.0397 6.85777C23.9334 5.5384 22.5512 4.47772 20.9905 3.7505C19.4298 3.02329 17.7286 2.64723 16.0068 2.64883Z" fill="#72569D"/>
<path d="M18.6484 13.4154H10.2433C9.97791 13.4154 9.7234 13.31 9.53575 13.1223C9.3481 12.9347 9.24268 12.6802 9.24268 12.4148C9.24268 12.1494 9.3481 11.8949 9.53575 11.7073C9.7234 11.5196 9.97791 11.4142 10.2433 11.4142H18.6484C18.9138 11.4142 19.1683 11.5196 19.3559 11.7073C19.5436 11.8949 19.649 12.1494 19.649 12.4148C19.649 12.6802 19.5436 12.9347 19.3559 13.1223C19.1683 13.31 18.9138 13.4154 18.6484 13.4154Z" fill="#72569D"/>
<path d="M21.9838 17.4178H10.2433C9.97791 17.4178 9.7234 17.3124 9.53575 17.1248C9.3481 16.9371 9.24268 16.6826 9.24268 16.4172C9.24268 16.1519 9.3481 15.8973 9.53575 15.7097C9.7234 15.522 9.97791 15.4166 10.2433 15.4166H21.9838C22.2491 15.4166 22.5036 15.522 22.6913 15.7097C22.8789 15.8973 22.9844 16.1519 22.9844 16.4172C22.9844 16.6826 22.8789 16.9371 22.6913 17.1248C22.5036 17.3124 22.2491 17.4178 21.9838 17.4178Z" fill="#72569D"/>
</svg>
