<svg width="32" height="32" viewBox="0 0 32 32" fill="none" xmlns="http://www.w3.org/2000/svg">
<path d="M24.4673 11.3333L28.054 5.33333C28.1704 5.13172 28.232 4.90313 28.2327 4.67032C28.2333 4.43751 28.173 4.20858 28.0577 4.00632C27.9424 3.80405 27.7762 3.6355 27.5755 3.51743C27.3749 3.39936 27.1468 3.33589 26.914 3.33333H9.58067V1.33333C9.58067 0.979711 9.44019 0.640573 9.19014 0.390524C8.94009 0.140476 8.60096 0 8.24733 0C7.89371 0 7.55457 0.140476 7.30453 0.390524C7.05448 0.640573 6.914 0.979711 6.914 1.33333V29.3333H5.10067C4.74705 29.3333 4.40791 29.4738 4.15786 29.7239C3.90781 29.9739 3.76733 30.313 3.76733 30.6667C3.76733 31.0203 3.90781 31.3594 4.15786 31.6095C4.40791 31.8595 4.74705 32 5.10067 32H11.394C11.7476 32 12.0868 31.8595 12.3368 31.6095C12.5869 31.3594 12.7273 31.0203 12.7273 30.6667C12.7273 30.313 12.5869 29.9739 12.3368 29.7239C12.0868 29.4738 11.7476 29.3333 11.394 29.3333H9.58067V19.3333H26.914C27.1468 19.3308 27.3749 19.2673 27.5755 19.1492C27.7762 19.0312 27.9424 18.8626 28.0577 18.6604C28.173 18.4581 28.2333 18.2292 28.2327 17.9963C28.232 17.7635 28.1704 17.5349 28.054 17.3333L24.4673 11.3333ZM9.58067 16.6667V6H24.5607L21.7673 10.6667C21.6503 10.8694 21.5887 11.0993 21.5887 11.3333C21.5887 11.5674 21.6503 11.7973 21.7673 12L24.5607 16.6667H9.58067Z" fill="#72569D"/>
</svg>
