<svg width="20" height="20" viewBox="0 0 20 20" fill="none" xmlns="http://www.w3.org/2000/svg">
<path d="M10 10C12.4855 10 14.5 7.98555 14.5 5.5C14.5 3.01445 12.4855 1 10 1C7.51445 1 5.5 3.01445 5.5 5.5C5.5 7.98555 7.51445 10 10 10ZM13.15 11.125H12.5629C11.7824 11.4836 10.9141 11.6875 10 11.6875C9.08594 11.6875 8.22109 11.4836 7.43711 11.125H6.85C4.24141 11.125 2.125 13.2414 2.125 15.85V17.3125C2.125 18.2441 2.88086 19 3.8125 19H16.1875C17.1191 19 17.875 18.2441 17.875 17.3125V15.85C17.875 13.2414 15.7586 11.125 13.15 11.125Z" fill="#72569d"/>
</svg>
