<svg width="48" height="48" viewBox="0 0 48 48" fill="none" xmlns="http://www.w3.org/2000/svg">
<path d="M6.35934 48C6.0118 47.9962 5.67126 47.9019 5.37124 47.7264C5.07121 47.551 4.82206 47.3004 4.6483 46.9994C4.44346 46.678 4.33464 46.3048 4.33464 45.9237C4.33464 45.5426 4.44346 45.1695 4.6483 44.8481C5.70226 43.3842 6.42685 41.7096 6.7723 39.9392C7.11774 38.1688 7.07586 36.3445 6.64952 34.5918C3.84336 30.8565 2.33586 26.3059 2.35691 21.634C2.35883 17.0912 3.7901 12.6643 6.44795 8.98023C9.1058 5.29618 12.8555 2.54182 17.1658 1.10736C21.4761 -0.327101 26.1285 -0.368941 30.4639 0.987768C34.7993 2.34448 38.5979 5.03095 41.3216 8.6666C44.0453 12.3023 45.5559 16.7028 45.6395 21.2447C45.7232 25.7867 44.3755 30.2398 41.7875 33.9733C39.1995 37.7067 35.5024 40.5312 31.2199 42.0466C26.9373 43.562 22.2866 43.6914 17.9264 42.4166C14.9983 45.6562 10.9425 47.6537 6.58948 48H6.35934ZM24.0101 3.97324C19.3287 3.97854 14.8407 5.84124 11.5314 9.15241C8.22214 12.4636 6.36199 16.9526 6.35934 21.634C6.34771 25.5789 7.67005 29.412 10.1116 32.5106C10.2856 32.725 10.4118 32.974 10.4818 33.241C11.3687 36.4849 11.2324 39.9235 10.0916 43.087C12.3073 42.2824 14.2287 40.8282 15.605 38.9145C15.86 38.5601 16.2239 38.2989 16.6412 38.1707C17.0585 38.0424 17.5063 38.0541 17.9164 38.204C20.3396 39.0976 22.9293 39.4488 25.503 39.2329C28.0766 39.017 30.5716 38.2392 32.8121 36.9544C35.0526 35.6696 36.984 33.909 38.4702 31.7967C39.9564 29.6845 40.9612 27.272 41.4139 24.7292C41.8665 22.1865 41.756 19.5754 41.09 17.08C40.4241 14.5847 39.2189 12.2657 37.5594 10.2867C35.9 8.3076 33.8267 6.71658 31.4856 5.62575C29.1446 4.53493 26.5928 3.97084 24.0101 3.97324Z" fill="#F5C84C"/>
<path d="M24.0201 23.7854C25.4016 23.7854 26.5216 22.6654 26.5216 21.2839C26.5216 19.9023 25.4016 18.7823 24.0201 18.7823C22.6385 18.7823 21.5186 19.9023 21.5186 21.2839C21.5186 22.6654 22.6385 23.7854 24.0201 23.7854Z" fill="#F5C84C"/>
<path d="M32.025 23.7854C33.4065 23.7854 34.5265 22.6654 34.5265 21.2839C34.5265 19.9023 33.4065 18.7823 32.025 18.7823C30.6434 18.7823 29.5234 19.9023 29.5234 21.2839C29.5234 22.6654 30.6434 23.7854 32.025 23.7854Z" fill="#F5C84C"/>
<path d="M16.0152 23.7854C17.3967 23.7854 18.5167 22.6654 18.5167 21.2839C18.5167 19.9023 17.3967 18.7823 16.0152 18.7823C14.6336 18.7823 13.5137 19.9023 13.5137 21.2839C13.5137 22.6654 14.6336 23.7854 16.0152 23.7854Z" fill="#F5C84C"/>
</svg>
