<svg width="48" height="48" viewBox="0 0 48 48" fill="none" xmlns="http://www.w3.org/2000/svg">
<path d="M43.7223 16.1639H37.6213L34.6159 7.77882C34.2346 6.72031 33.4534 5.85354 32.44 5.36467C31.4267 4.87579 30.262 4.80378 29.1962 5.16411L2.85879 14.4909C2.32838 14.6774 1.83994 14.9666 1.42141 15.342C1.00287 15.7174 0.662443 16.1717 0.419599 16.6788C0.176756 17.1859 0.0362581 17.7358 0.00614156 18.2973C-0.023975 18.8587 0.0568805 19.4206 0.244084 19.9507L6.3651 37.2518C6.72353 38.3004 7.4811 39.1652 8.47333 39.6585C9.46556 40.1518 10.6123 40.2337 11.6646 39.8866C11.9067 40.7947 12.4412 41.5979 13.1854 42.1719C13.9296 42.7459 14.8422 43.0588 15.782 43.0623H43.7223C44.8568 43.0623 45.9449 42.6116 46.7471 41.8094C47.5493 41.0072 48 39.9191 48 38.7846V20.4416C48 19.3071 47.5493 18.219 46.7471 17.4168C45.9449 16.6146 44.8568 16.1639 43.7223 16.1639ZM43.9928 20.4416V22.5554H15.5116V20.4416C15.5116 20.3699 15.54 20.3011 15.5908 20.2503C15.6415 20.1996 15.7103 20.1711 15.782 20.1711H43.7223C43.794 20.1711 43.8628 20.1996 43.9136 20.2503C43.9643 20.3011 43.9928 20.3699 43.9928 20.4416ZM10.1419 35.9094L4.00084 18.6083C3.98644 18.5769 3.97898 18.5427 3.97898 18.5081C3.97898 18.4735 3.98644 18.4394 4.00084 18.4079C4.03375 18.3419 4.09134 18.2915 4.16113 18.2677L30.5185 8.93089C30.589 8.90789 30.6657 8.91272 30.7327 8.94438C30.7998 8.97604 30.8522 9.03215 30.8792 9.1012L33.3737 16.1138H15.782C14.6475 16.1138 13.5595 16.5645 12.7573 17.3667C11.955 18.1689 11.5043 19.257 11.5043 20.3915V35.7091L10.5025 36.0697C10.4685 36.0841 10.4318 36.0913 10.3948 36.091C10.3578 36.0906 10.3213 36.0827 10.2875 36.0677C10.2537 36.0527 10.2233 36.0309 10.1983 36.0037C10.1732 35.9764 10.154 35.9444 10.1419 35.9094ZM43.7223 39.0551H15.782C15.7103 39.0551 15.6415 39.0266 15.5908 38.9759C15.54 38.9251 15.5116 38.8563 15.5116 38.7846V27.5644H43.9928V38.7846C43.9928 38.8563 43.9643 38.9251 43.9136 38.9759C43.8628 39.0266 43.794 39.0551 43.7223 39.0551Z" fill="#2DD279"/>
<path d="M25.6899 30.139H19.5989C19.2004 30.139 18.8181 30.2974 18.5363 30.5792C18.2545 30.861 18.0962 31.2432 18.0962 31.6417C18.0962 32.0403 18.2545 32.4225 18.5363 32.7043C18.8181 32.9861 19.2004 33.1444 19.5989 33.1444H25.6899C26.0884 33.1444 26.4706 32.9861 26.7524 32.7043C27.0342 32.4225 27.1926 32.0403 27.1926 31.6417C27.1926 31.2432 27.0342 30.861 26.7524 30.5792C26.4706 30.2974 26.0884 30.139 25.6899 30.139Z" fill="#2DD279"/>
</svg>
