<svg width="48" height="48" viewBox="0 0 48 48" fill="none" xmlns="http://www.w3.org/2000/svg">
<path d="M24 45.0084C23.4723 45.0062 22.967 44.7947 22.5949 44.4205L3.90061 25.7261C1.40309 23.2286 -2.63157e-08 19.8413 0 16.3092C2.63157e-08 12.7772 1.40309 9.38983 3.90061 6.89231C6.39814 4.39479 9.7855 2.9917 13.3175 2.9917C16.8496 2.9917 20.2369 4.39479 22.7344 6.89231L24 8.15787L25.2656 6.90228C27.7631 4.40476 31.1504 3.00166 34.6825 3.00166C36.4314 3.00166 38.1631 3.34613 39.7789 4.0154C41.3946 4.68467 42.8627 5.66563 44.0994 6.90228C45.336 8.13893 46.317 9.60704 46.9863 11.2228C47.6555 12.8386 48 14.5703 48 16.3192C48 18.0681 47.6555 19.7998 46.9863 21.4156C46.317 23.0313 45.336 24.4995 44.0994 25.7361L25.415 44.4205C25.2296 44.607 25.0091 44.755 24.7663 44.8559C24.5234 44.9568 24.263 45.0086 24 45.0084ZM13.3175 6.982C11.4682 6.97744 9.65934 7.52272 8.12064 8.54854C6.58195 9.57436 5.38292 11.0344 4.6759 12.7432C3.96888 14.452 3.78579 16.3324 4.14988 18.1455C4.51397 19.9586 5.40881 21.6226 6.72071 22.926L24 40.1953L41.2793 22.926C42.9931 21.1685 43.9459 18.8067 43.9314 16.352C43.9169 13.8972 42.9363 11.5469 41.2018 9.80973C39.4673 8.0726 37.1184 7.08841 34.6637 7.0702C32.2089 7.05198 29.8457 8.00121 28.0856 9.71241L25.415 12.383C25.0351 12.7455 24.5301 12.9477 24.005 12.9477C23.4799 12.9477 22.9749 12.7455 22.5949 12.383L19.9343 9.71241C19.0675 8.84133 18.0361 8.15134 16.9002 7.68259C15.7642 7.21384 14.5464 6.97569 13.3175 6.982Z" fill="#FC657E"/>
</svg>
