<svg width="48" height="48" viewBox="0 0 48 48" fill="none" xmlns="http://www.w3.org/2000/svg">
<path d="M38.2208 44.7794C38.2627 44.7408 38.2996 44.6971 38.3308 44.6494L38.4408 44.4594C38.4408 44.4594 38.5008 44.3594 38.5208 44.3094C38.5408 44.2594 38.5208 44.2094 38.5208 44.1494L38.5908 43.9394C38.5957 43.8963 38.5957 43.8527 38.5908 43.8095C38.5957 43.7195 38.5957 43.6294 38.5908 43.5395C38.5957 43.4796 38.5957 43.4194 38.5908 43.3595C38.596 43.2963 38.596 43.2327 38.5908 43.1695L37.4109 36.93C37.2467 35.9721 36.8499 35.0692 36.2554 34.3004C35.6609 33.5315 34.8869 32.9203 34.0011 32.5204L26.7217 29.4006C27.3398 28.2295 27.6625 26.9252 27.6617 25.601V20.8713C27.6617 19.7807 27.4462 18.7008 27.0276 17.6937C26.6091 16.6866 25.9956 15.7721 25.2226 15.0028C24.4495 14.2335 23.5321 13.6244 22.523 13.2107C21.5139 12.797 20.433 12.5867 19.3423 12.592C17.1465 12.592 15.0407 13.4643 13.488 15.017C11.9353 16.5696 11.063 18.6755 11.063 20.8713V25.591C11.0622 26.9152 11.3848 28.2195 12.0029 29.3906L4.72354 32.5204C3.82718 32.904 3.03904 33.5024 2.42868 34.2627C1.81833 35.023 1.40454 35.9219 1.22383 36.88L0.00393031 43.1195C-0.0013101 43.1827 -0.0013101 43.2463 0.00393031 43.3095C-0.000986623 43.3694 -0.000986623 43.4296 0.00393031 43.4895C-0.000972119 43.5794 -0.000972119 43.6695 0.00393031 43.7595C-0.00102698 43.8027 -0.00102698 43.8463 0.00393031 43.8895L0.0739246 44.0994C0.0739246 44.1594 0.0739246 44.2094 0.12392 44.2594C0.173916 44.3094 0.183916 44.3594 0.203914 44.4094L0.313905 44.5994C0.34506 44.6471 0.382005 44.6908 0.423896 44.7294C0.461598 44.787 0.50516 44.8407 0.553885 44.8894C0.598026 44.9322 0.644779 44.9723 0.693874 45.0094L0.853861 45.1393L0.98385 45.2093L1.19383 45.3193H1.30382L1.5838 45.3993C1.69689 45.4097 1.81068 45.4097 1.92377 45.3993H36.7109C36.824 45.4097 36.9378 45.4097 37.0509 45.3993L37.3309 45.3193H37.4409L37.6508 45.2093L37.7808 45.1393L37.9408 45.0094C37.9919 44.9748 38.0389 44.9346 38.0808 44.8894C38.1307 44.8569 38.1775 44.8201 38.2208 44.7794ZM15.0627 20.8713C15.0627 19.7363 15.5136 18.6478 16.3162 17.8452C17.1188 17.0426 18.2073 16.5917 19.3423 16.5917C20.4774 16.5917 21.5659 17.0426 22.3685 17.8452C23.1711 18.6478 23.622 19.7363 23.622 20.8713V25.591C23.622 26.726 23.1711 27.8145 22.3685 28.6171C21.5659 29.4197 20.4774 29.8706 19.3423 29.8706C18.2073 29.8706 17.1188 29.4197 16.3162 28.6171C15.5136 27.8145 15.0627 26.726 15.0627 25.591V20.8713ZM5.15351 37.59C5.21115 37.2774 5.34547 36.9841 5.54442 36.7363C5.74338 36.4885 6.00074 36.2939 6.29342 36.1701L14.4827 32.6604C14.5947 32.6103 14.7018 32.5501 14.8027 32.4804C16.1491 33.3706 17.7283 33.8437 19.3423 33.8403C20.9564 33.8437 22.5356 33.3706 23.882 32.4804C23.9829 32.5501 24.09 32.6103 24.202 32.6604L32.3913 36.1701C32.684 36.2939 32.9413 36.4885 33.1403 36.7363C33.3392 36.9841 33.4735 37.2774 33.5312 37.59L34.2711 41.4997H4.41357L5.15351 37.59Z" fill="#3AC0EE"/>
<path d="M38.5208 2.5929C36.6483 2.59488 34.8186 3.15192 33.2627 4.19361C31.7068 5.2353 30.4946 6.71489 29.7795 8.44533C29.0643 10.1758 28.8782 12.0794 29.2447 13.9156C29.6112 15.7518 30.5138 17.4381 31.8385 18.7614C33.1632 20.0847 34.8505 20.9856 36.6871 21.3501C38.5236 21.7147 40.4271 21.5266 42.1568 20.8096C43.8865 20.0926 45.3648 18.8789 46.4048 17.3219C47.4449 15.7649 48 13.9345 48 12.0621C48 10.8178 47.7547 9.58561 47.2782 8.4361C46.8017 7.28659 46.1033 6.24226 45.223 5.36283C44.3426 4.4834 43.2976 3.78612 42.1475 3.31083C40.9975 2.83555 39.7651 2.59159 38.5208 2.5929ZM43.0004 13.592H40.0006V16.5918C40.0006 16.9895 39.8426 17.371 39.5613 17.6523C39.28 17.9336 38.8985 18.0916 38.5008 18.0916C38.103 18.0916 37.7215 17.9336 37.4402 17.6523C37.1589 17.371 37.0009 16.9895 37.0009 16.5918V13.592H34.0011C33.6033 13.592 33.2218 13.434 32.9405 13.1527C32.6593 12.8714 32.5012 12.4899 32.5012 12.0921C32.5012 11.6943 32.6593 11.3128 32.9405 11.0315C33.2218 10.7503 33.6033 10.5922 34.0011 10.5922H37.0009V7.59249C37.0009 7.1947 37.1589 6.8132 37.4402 6.53192C37.7215 6.25064 38.103 6.09261 38.5008 6.09261C38.8985 6.09261 39.28 6.25064 39.5613 6.53192C39.8426 6.8132 40.0006 7.1947 40.0006 7.59249V10.5922H43.0004C43.3982 10.5922 43.7797 10.7503 44.061 11.0315C44.3422 11.3128 44.5003 11.6943 44.5003 12.0921C44.5003 12.4899 44.3422 12.8714 44.061 13.1527C43.7797 13.434 43.3982 13.592 43.0004 13.592Z" fill="#3AC0EE"/>
</svg>
