<svg width="32" height="32" viewBox="0 0 32 32" fill="none" xmlns="http://www.w3.org/2000/svg">
<path d="M27.9349 12.616C27.8595 12.3939 27.7207 12.1987 27.5356 12.0546C27.3505 11.9104 27.1273 11.8236 26.8934 11.8049L20.0532 11.2614L17.0931 4.70907C16.9989 4.49803 16.8455 4.31878 16.6517 4.19296C16.4578 4.06714 16.2316 4.00013 16.0005 4C15.7693 3.99987 15.5431 4.06664 15.3491 4.19225C15.1551 4.31786 15.0015 4.49693 14.907 4.70787L11.947 11.2614L5.10673 11.8049C4.87691 11.8231 4.6572 11.9072 4.47388 12.047C4.29057 12.1868 4.15141 12.3764 4.07306 12.5933C3.99471 12.8101 3.98049 13.0449 4.03209 13.2696C4.08369 13.4943 4.19893 13.6993 4.36403 13.8603L9.41896 18.788L7.6312 26.5294C7.57691 26.7637 7.59431 27.0089 7.68114 27.2333C7.76796 27.4576 7.9202 27.6506 8.1181 27.7873C8.316 27.9241 8.55042 27.9981 8.79095 28C9.03147 28.0018 9.267 27.9313 9.46695 27.7976L16.0001 23.4422L22.5332 27.7976C22.7376 27.9333 22.9786 28.0032 23.2239 27.9978C23.4692 27.9924 23.7069 27.912 23.9051 27.7675C24.1033 27.623 24.2526 27.4212 24.3327 27.1894C24.4128 26.9575 24.4201 26.7067 24.3534 26.4706L22.1589 18.7916L27.6014 13.8938C27.9577 13.5723 28.0885 13.0708 27.9349 12.616V12.616Z" fill="#FFCC00"/>
</svg>
