<svg width="233" height="32" viewBox="0 0 233 32" fill="none" xmlns="http://www.w3.org/2000/svg">
<g clip-path="url(#clip0_53_2728)">
<path d="M47 0H5C2.23858 0 0 2.23858 0 5V27C0 29.7614 2.23858 32 5 32H47C49.7614 32 52 29.7614 52 27V5C52 2.23858 49.7614 0 47 0Z" fill="white" fill-opacity="0.08"/>
<path d="M15.4386 27.9738V26.3792C15.4478 26.2451 15.4286 26.1106 15.3824 25.9845C15.3362 25.8585 15.2639 25.7439 15.1705 25.6484C15.0771 25.5528 14.9647 25.4785 14.8406 25.4304C14.7166 25.3823 14.5839 25.3615 14.4513 25.3693C14.2778 25.3578 14.1044 25.3937 13.9492 25.4731C13.794 25.5526 13.6627 25.6728 13.5691 25.8211C13.4837 25.6772 13.3616 25.5593 13.2156 25.4798C13.0695 25.4003 12.905 25.3621 12.7394 25.3693C12.5949 25.3619 12.4511 25.3929 12.3222 25.4591C12.1932 25.5253 12.0836 25.6244 12.0042 25.7467V25.4331H11.458V27.9738H12.0094V26.5759C11.9977 26.489 12.0051 26.4006 12.031 26.3169C12.057 26.2332 12.1009 26.1564 12.1596 26.0919C12.2183 26.0274 12.2903 25.9769 12.3706 25.9438C12.4508 25.9108 12.5373 25.8961 12.6238 25.9008C12.9862 25.9008 13.17 26.14 13.17 26.5706V27.9844H13.7214V26.5759C13.7101 26.4891 13.7178 26.4008 13.744 26.3174C13.7701 26.2339 13.814 26.1573 13.8726 26.0929C13.9312 26.0286 14.0031 25.978 14.0831 25.9448C14.1631 25.9116 14.2494 25.8966 14.3358 25.9008C14.7086 25.9008 14.8872 26.14 14.8872 26.5706V27.9844L15.4386 27.9738ZM23.5967 25.4331H22.6987V24.6624H22.1473V25.4331H21.6484V25.9381H22.1578V27.1074C22.1578 27.6974 22.3836 28.0482 23.0295 28.0482C23.2708 28.049 23.5075 27.9808 23.7122 27.8515L23.5547 27.3785C23.4082 27.4669 23.242 27.5163 23.0715 27.522C22.809 27.522 22.7092 27.3519 22.7092 27.0968V25.9381H23.6019L23.5967 25.4331ZM28.2547 25.3693C28.1215 25.3654 27.9898 25.3978 27.8733 25.4633C27.7569 25.5288 27.66 25.6249 27.593 25.7414V25.4331H27.0521V27.9738H27.5983V26.5493C27.5983 26.1294 27.7768 25.8955 28.1234 25.8955C28.2402 25.8939 28.3562 25.9156 28.4647 25.9593L28.6328 25.4278C28.5081 25.3826 28.3767 25.3593 28.2442 25.3587L28.2547 25.3693ZM21.2125 25.6351C20.9034 25.449 20.5479 25.3568 20.1885 25.3693C19.5531 25.3693 19.1382 25.6776 19.1382 26.1825C19.1382 26.5971 19.4428 26.8523 20.0047 26.932L20.2673 26.9692C20.5666 27.0117 20.7084 27.0914 20.7084 27.235C20.7084 27.4316 20.5088 27.5432 20.136 27.5432C19.8361 27.552 19.542 27.4584 19.301 27.2775L19.0384 27.708C19.3566 27.9328 19.7376 28.0483 20.1255 28.0375C20.8502 28.0375 21.2703 27.6921 21.2703 27.2084C21.2703 26.7247 20.9395 26.528 20.3933 26.4483L20.1307 26.4111C19.8944 26.3792 19.7054 26.3314 19.7054 26.1613C19.7054 25.9912 19.8839 25.8636 20.1832 25.8636C20.4599 25.8669 20.7311 25.9419 20.971 26.0816L21.2125 25.6351ZM35.8404 25.3693C35.7072 25.3654 35.5755 25.3978 35.459 25.4633C35.3426 25.5288 35.2457 25.6249 35.1787 25.7414V25.4331H34.6378V27.9738H35.1839V26.5493C35.1839 26.1294 35.3625 25.8955 35.7091 25.8955C35.8259 25.8939 35.9419 25.9156 36.0504 25.9593L36.2185 25.4278C36.0937 25.3826 35.9623 25.3593 35.8299 25.3587L35.8404 25.3693ZM28.8035 26.6981C28.797 26.8767 28.8274 27.0546 28.8927 27.2206C28.9581 27.3865 29.0569 27.5369 29.183 27.662C29.309 27.787 29.4595 27.8841 29.6247 27.9469C29.79 28.0098 29.9663 28.037 30.1426 28.0269C30.4705 28.0438 30.7928 27.9357 31.0458 27.7239L30.7832 27.2775C30.5945 27.4232 30.3642 27.5034 30.1268 27.506C29.9249 27.4895 29.7366 27.3967 29.5993 27.246C29.462 27.0953 29.3857 26.8978 29.3857 26.6928C29.3857 26.4878 29.462 26.2903 29.5993 26.1396C29.7366 25.989 29.9249 25.8961 30.1268 25.8796C30.3642 25.8823 30.5945 25.9624 30.7832 26.1081L31.0458 25.6617C30.7928 25.4499 30.4705 25.3418 30.1426 25.3587C29.9663 25.3486 29.79 25.3758 29.6247 25.4387C29.4595 25.5015 29.309 25.5986 29.183 25.7237C29.0569 25.8487 28.9581 25.9991 28.8927 26.165C28.8274 26.331 28.797 26.5089 28.8035 26.6875V26.6981ZM33.9184 26.6981V25.4331H33.3722V25.7414C33.2795 25.6206 33.1597 25.5239 33.0227 25.4592C32.8857 25.3945 32.7355 25.3637 32.5845 25.3693C32.2363 25.3693 31.9024 25.5093 31.6562 25.7585C31.4099 26.0077 31.2716 26.3457 31.2716 26.6981C31.2716 27.0505 31.4099 27.3885 31.6562 27.6377C31.9024 27.8869 32.2363 28.0269 32.5845 28.0269C32.7355 28.0326 32.8857 28.0018 33.0227 27.9371C33.1597 27.8724 33.2795 27.7756 33.3722 27.6549V27.9631H33.9184V26.6981ZM31.886 26.6981C31.8948 26.5486 31.9465 26.4049 32.0349 26.2847C32.1233 26.1645 32.2444 26.0731 32.3835 26.0218C32.5225 25.9704 32.6734 25.9614 32.8174 25.9957C32.9615 26.03 33.0925 26.1063 33.1943 26.215C33.2962 26.3237 33.3643 26.4602 33.3905 26.6077C33.4166 26.7551 33.3996 26.9071 33.3414 27.0449C33.2833 27.1827 33.1867 27.3002 33.0634 27.3831C32.9401 27.466 32.7955 27.5106 32.6475 27.5113C32.5435 27.5127 32.4404 27.4922 32.3447 27.4513C32.2489 27.4103 32.1625 27.3497 32.091 27.2733C32.0195 27.197 31.9644 27.1064 31.9291 27.0074C31.8938 26.9084 31.8792 26.8031 31.886 26.6981ZM25.2955 25.3693C24.9473 25.3743 24.6153 25.519 24.3726 25.7717C24.1298 26.0244 23.9962 26.3643 24.001 26.7167C24.0059 27.0691 24.1489 27.4052 24.3986 27.6509C24.6482 27.8966 24.9841 28.0318 25.3323 28.0269C25.71 28.0465 26.0815 27.9234 26.3747 27.6814L26.1121 27.2722C25.9048 27.4405 25.6479 27.534 25.3822 27.5379C25.2016 27.5536 25.0222 27.4974 24.8819 27.3813C24.7417 27.2652 24.6517 27.0983 24.6312 26.916H26.4955C26.4955 26.8469 26.4955 26.7778 26.4955 26.7034C26.4955 25.9062 26.0071 25.3746 25.3034 25.3746L25.2955 25.3693ZM25.2955 25.8636C25.3772 25.8619 25.4585 25.8764 25.5347 25.9065C25.6108 25.9365 25.6804 25.9814 25.7394 26.0387C25.7984 26.0959 25.8457 26.1644 25.8786 26.2402C25.9114 26.3159 25.9292 26.3975 25.9309 26.4802H24.6181C24.6276 26.3096 24.7027 26.1495 24.8274 26.0343C24.952 25.9191 25.1163 25.8578 25.285 25.8636H25.2955ZM38.9781 26.7034V24.4126H38.453V25.7414C38.3602 25.6206 38.2404 25.5239 38.1034 25.4592C37.9665 25.3945 37.8163 25.3637 37.6652 25.3693C37.317 25.3693 36.9831 25.5093 36.7369 25.7585C36.4907 26.0077 36.3524 26.3457 36.3524 26.6981C36.3524 27.0505 36.4907 27.3885 36.7369 27.6377C36.9831 27.8869 37.317 28.0269 37.6652 28.0269C37.8163 28.0326 37.9665 28.0018 38.1034 27.9371C38.2404 27.8724 38.3602 27.7756 38.453 27.6549V27.9631H38.9781V26.7034ZM39.8892 27.6044C39.9234 27.6039 39.9572 27.6103 39.989 27.623C40.0192 27.6354 40.0468 27.6534 40.0704 27.6761C40.0935 27.699 40.1122 27.7261 40.1255 27.7558C40.1388 27.7869 40.1457 27.8203 40.1457 27.8542C40.1457 27.888 40.1388 27.9215 40.1255 27.9525C40.1122 27.9823 40.0935 28.0093 40.0704 28.0322C40.0468 28.0549 40.0192 28.0729 39.989 28.0854C39.9576 28.0994 39.9236 28.1067 39.8892 28.1066C39.8394 28.1063 39.7908 28.0916 39.749 28.0643C39.7071 28.037 39.6738 27.9982 39.6529 27.9525C39.6398 27.9214 39.633 27.888 39.633 27.8542C39.633 27.8204 39.6398 27.7869 39.6529 27.7558C39.6663 27.7261 39.685 27.699 39.708 27.6761C39.7317 27.6534 39.7593 27.6354 39.7894 27.623C39.8236 27.6092 39.8603 27.6029 39.8971 27.6044H39.8892ZM39.8892 28.0535C39.9154 28.0537 39.9414 28.0482 39.9654 28.0375C39.988 28.0273 40.0084 28.0129 40.0258 27.995C40.0586 27.9588 40.0768 27.9113 40.0768 27.8621C40.0768 27.8129 40.0586 27.7655 40.0258 27.7293C40.0085 27.7113 39.988 27.6969 39.9654 27.6867C39.9413 27.6761 39.9154 27.6707 39.8892 27.6708C39.863 27.6709 39.8372 27.6764 39.8131 27.6867C39.7895 27.6965 39.7681 27.711 39.7501 27.7293C39.7172 27.7655 39.699 27.8129 39.699 27.8621C39.699 27.9113 39.7172 27.9588 39.7501 27.995C39.7681 28.0132 39.7895 28.0277 39.8131 28.0375C39.8396 28.0491 39.8683 28.0546 39.8971 28.0535H39.8892ZM39.905 27.7372C39.9295 27.736 39.9536 27.7436 39.9732 27.7585C39.9813 27.7652 39.9876 27.7738 39.9917 27.7835C39.9958 27.7932 39.9976 27.8038 39.9969 27.8143C39.9973 27.8231 39.9958 27.8319 39.9926 27.8402C39.9895 27.8484 39.9847 27.8559 39.9785 27.8621C39.9633 27.8761 39.9439 27.8846 39.9234 27.8861L39.9995 27.9738H39.9391L39.8682 27.8861H39.8446V27.9738H39.7947V27.7399L39.905 27.7372ZM39.8472 27.7824V27.8462H39.905C39.9153 27.8493 39.9262 27.8493 39.9365 27.8462C39.9383 27.8425 39.9393 27.8384 39.9393 27.8342C39.9393 27.8301 39.9383 27.826 39.9365 27.8223C39.9383 27.8186 39.9393 27.8145 39.9393 27.8103C39.9393 27.8062 39.9383 27.8021 39.9365 27.7984C39.9262 27.7953 39.9153 27.7953 39.905 27.7984L39.8472 27.7824ZM36.9589 26.7034C36.9676 26.5539 37.0194 26.4102 37.1077 26.29C37.1961 26.1698 37.3173 26.0785 37.4564 26.0271C37.5954 25.9758 37.7462 25.9667 37.8903 26.001C38.0344 26.0353 38.1654 26.1116 38.2672 26.2203C38.369 26.329 38.4372 26.4655 38.4633 26.613C38.4895 26.7605 38.4724 26.9124 38.4143 27.0502C38.3562 27.188 38.2595 27.3055 38.1362 27.3884C38.0129 27.4713 37.8684 27.5159 37.7204 27.5167C37.6164 27.518 37.5133 27.4975 37.4175 27.4566C37.3218 27.4156 37.2354 27.355 37.1639 27.2787C37.0924 27.2023 37.0372 27.1117 37.002 27.0127C36.9667 26.9137 36.952 26.8084 36.9589 26.7034ZM18.5185 26.7034V25.4331H17.9724V25.7414C17.8797 25.6206 17.7599 25.5239 17.6229 25.4592C17.4859 25.3945 17.3357 25.3637 17.1847 25.3693C16.8365 25.3693 16.5026 25.5093 16.2564 25.7585C16.0101 26.0077 15.8718 26.3457 15.8718 26.6981C15.8718 27.0505 16.0101 27.3885 16.2564 27.6377C16.5026 27.8869 16.8365 28.0269 17.1847 28.0269C17.3357 28.0326 17.4859 28.0018 17.6229 27.9371C17.7599 27.8724 17.8797 27.7756 17.9724 27.6549V27.9631H18.5185V26.7034ZM16.4862 26.7034C16.495 26.5539 16.5467 26.4102 16.6351 26.29C16.7234 26.1698 16.8446 26.0785 16.9837 26.0271C17.1227 25.9758 17.2736 25.9667 17.4176 26.001C17.5617 26.0353 17.6927 26.1116 17.7945 26.2203C17.8964 26.329 17.9645 26.4655 17.9907 26.613C18.0168 26.7605 17.9998 26.9124 17.9416 27.0502C17.8835 27.188 17.7869 27.3055 17.6636 27.3884C17.5403 27.4713 17.3957 27.5159 17.2477 27.5167C17.1433 27.5187 17.0396 27.4988 16.9432 27.4582C16.8468 27.4176 16.7598 27.3571 16.6877 27.2806C16.6156 27.2042 16.56 27.1134 16.5244 27.014C16.4889 26.9147 16.4741 26.8089 16.481 26.7034H16.4862Z" fill="#231F20"/>
<path d="M29.3022 6.07227H21.0312V21.1169H29.3022V6.07227Z" fill="#FF5F00"/>
<path d="M21.5566 13.5965C21.555 12.1474 21.8793 10.7169 22.5048 9.41341C23.1303 8.10991 24.0407 6.96756 25.1669 6.07285C23.7724 4.96363 22.0978 4.27387 20.3343 4.08241C18.5708 3.89095 16.7897 4.2055 15.1945 4.99013C13.5993 5.77475 12.2544 6.99779 11.3134 8.51946C10.3725 10.0411 9.87354 11.8 9.87354 13.5951C9.87354 15.3903 10.3725 17.1492 11.3134 18.6708C12.2544 20.1925 13.5993 21.4155 15.1945 22.2002C16.7897 22.9848 18.5708 23.2993 20.3343 23.1079C22.0978 22.9164 23.7724 22.2267 25.1669 21.1174C24.041 20.223 23.1309 19.0811 22.5054 17.7781C21.8799 16.4751 21.5554 15.0451 21.5566 13.5965Z" fill="#EB001B"/>
<path d="M40.4618 13.5961C40.4617 15.3914 39.9626 17.1504 39.0215 18.6721C38.0804 20.1938 36.7353 21.4168 35.1399 22.2014C33.5445 22.9859 31.7632 23.3002 29.9996 23.1085C28.2361 22.9167 26.5614 22.2267 25.167 21.1171C26.2924 20.2219 27.2023 19.0796 27.828 17.7765C28.4536 16.4735 28.7787 15.0436 28.7787 13.5948C28.7787 12.146 28.4536 10.7161 27.828 9.41303C27.2023 8.10996 26.2924 6.96772 25.167 6.07249C26.5614 4.96293 28.2361 4.27283 29.9996 4.0811C31.7632 3.88936 33.5445 4.20371 35.1399 4.98822C36.7353 5.77274 38.0804 6.99575 39.0215 8.51747C39.9626 10.0392 40.4617 11.7982 40.4618 13.5935V13.5961Z" fill="#F79E1B"/>
<path d="M39.5582 19.5225V19.2142H39.6816V19.1504H39.3691V19.2142H39.5031V19.5225H39.5582ZM40.1647 19.5225V19.1504H40.0702L39.9599 19.4161L39.8496 19.1504H39.7656V19.5225H39.8339V19.2434L39.9363 19.4852H40.0072L40.1096 19.2434V19.5251L40.1647 19.5225Z" fill="#F79E1B"/>
</g>
<path d="M107 0H65C62.2386 0 60 2.23858 60 5V27C60 29.7614 62.2386 32 65 32H107C109.761 32 112 29.7614 112 27V5C112 2.23858 109.761 0 107 0Z" fill="white" fill-opacity="0.08"/>
<path fill-rule="evenodd" clip-rule="evenodd" d="M77.9342 21.3444H75.1878L73.1284 13.2565C73.0307 12.8845 72.8231 12.5556 72.5178 12.4006C71.7559 12.011 70.9164 11.701 70.0005 11.5446V11.2332H74.4246C75.0352 11.2332 75.4931 11.701 75.5695 12.2442L76.638 18.0782L79.383 11.2332H82.053L77.9342 21.3444ZM83.5795 21.3444H80.9858L83.1216 11.2332H85.7152L83.5795 21.3444ZM89.0708 14.0343C89.1472 13.4897 89.6051 13.1783 90.1394 13.1783C90.9789 13.1001 91.8935 13.2565 92.6567 13.6447L93.1147 11.4677C92.3514 11.1564 91.5119 11 90.75 11C88.2326 11 86.4008 12.4005 86.4008 14.3443C86.4008 15.823 87.6984 16.5995 88.6142 17.0672C89.6051 17.5336 89.9867 17.845 89.9104 18.3114C89.9104 19.011 89.1472 19.3224 88.3853 19.3224C87.4694 19.3224 86.5535 19.0892 85.7153 18.6996L85.2573 20.8779C86.1732 21.2662 87.1641 21.4225 88.08 21.4225C90.9026 21.4994 92.6567 20.1002 92.6567 18C92.6567 15.3553 89.0708 15.2003 89.0708 14.0343ZM101.734 21.3444L99.6743 11.2332H97.4623C97.0043 11.2332 96.5464 11.5446 96.3938 12.011L92.5802 21.3444H95.2502L95.7832 19.867H99.0638L99.369 21.3444H101.734ZM97.844 13.9561L98.6059 17.7668H96.4702L97.844 13.9561Z" fill="white"/>
<g clip-path="url(#clip1_53_2728)">
<path d="M168 0H126C123.239 0 121 2.23858 121 5V27C121 29.7614 123.239 32 126 32H168C170.761 32 173 29.7614 173 27V5C173 2.23858 170.761 0 168 0Z" fill="white" fill-opacity="0.08"/>
<mask id="mask0_53_2728" style="mask-type:luminance" maskUnits="userSpaceOnUse" x="126" y="9" width="41" height="16">
<path d="M167 9H126V25H167V9Z" fill="white"/>
</mask>
<g mask="url(#mask0_53_2728)">
<path d="M154.032 18.8939L154.433 19.0115C154.41 19.1107 154.367 19.2041 154.305 19.2858C154.249 19.3581 154.175 19.4152 154.089 19.4519C154.004 19.4893 153.896 19.5077 153.763 19.5077C153.602 19.5077 153.471 19.4854 153.369 19.4399C153.267 19.3944 153.179 19.3141 153.105 19.1995C153.031 19.0845 152.994 18.9377 152.994 18.7587C152.994 18.5205 153.059 18.3372 153.189 18.2093C153.319 18.081 153.504 18.0166 153.742 18.0166C153.928 18.0166 154.074 18.0535 154.18 18.1269C154.287 18.1999 154.366 18.3132 154.418 18.4651L154.015 18.5523C154.006 18.5182 153.991 18.4857 153.971 18.4561C153.946 18.4225 153.913 18.3953 153.875 18.3769C153.837 18.3584 153.795 18.3492 153.753 18.3501C153.705 18.3482 153.659 18.3585 153.617 18.3799C153.575 18.4013 153.54 18.4331 153.515 18.472C153.473 18.5321 153.452 18.6265 153.452 18.7561C153.452 18.9158 153.477 19.0257 153.527 19.0854C153.553 19.1149 153.585 19.1382 153.621 19.1536C153.658 19.1689 153.697 19.1758 153.737 19.1738C153.824 19.1738 153.89 19.1497 153.934 19.1021C153.979 19.054 154.012 18.9849 154.032 18.8939ZM154.598 18.763C154.598 18.5278 154.665 18.3445 154.8 18.2136C154.934 18.0823 155.121 18.0166 155.361 18.0166C155.608 18.0166 155.797 18.081 155.93 18.2106C156.063 18.3389 156.13 18.5192 156.13 18.7514C156.13 18.9197 156.101 19.0579 156.042 19.1656C155.984 19.2729 155.9 19.3571 155.79 19.4176C155.681 19.4772 155.543 19.5069 155.379 19.5069C155.213 19.5069 155.075 19.4811 154.965 19.4296C154.854 19.3754 154.761 19.2897 154.7 19.1836C154.632 19.0716 154.598 18.9313 154.598 18.763ZM155.055 18.7647C155.055 18.9107 155.083 19.015 155.138 19.0781C155.166 19.1097 155.2 19.1347 155.24 19.1513C155.279 19.1679 155.322 19.1756 155.364 19.1738C155.463 19.1738 155.538 19.1424 155.593 19.0802C155.646 19.018 155.673 18.9064 155.673 18.7454C155.673 18.6094 155.645 18.5106 155.588 18.4484C155.56 18.417 155.525 18.3923 155.485 18.3759C155.446 18.3596 155.403 18.3521 155.36 18.354C155.318 18.3524 155.277 18.3602 155.238 18.3767C155.2 18.3932 155.166 18.418 155.138 18.4493C155.083 18.5128 155.055 18.6179 155.055 18.7647ZM156.371 18.0415H156.972L157.204 18.918L157.435 18.0415H158.034V19.4824H157.661V18.3836L157.371 19.4824H157.034L156.745 18.3836V19.4824H156.371L156.371 18.0415ZM158.324 18.0415H159.084C159.25 18.0415 159.373 18.0797 159.455 18.1565C159.538 18.2329 159.579 18.3419 159.579 18.4836C159.579 18.6295 159.534 18.7428 159.444 18.8248C159.354 18.9064 159.218 18.9476 159.033 18.9476H158.783V19.4824H158.324V18.0415ZM158.783 18.6557H158.896C158.984 18.6557 159.045 18.6411 159.081 18.6115C159.098 18.5974 159.112 18.5798 159.121 18.5599C159.13 18.54 159.135 18.5183 159.134 18.4965C159.135 18.4753 159.131 18.4542 159.123 18.4344C159.115 18.4147 159.103 18.3967 159.088 18.3814C159.057 18.3501 158.999 18.3342 158.914 18.3342H158.783V18.6557ZM159.819 18.0415H160.276V19.1274H160.989V19.4824H159.819V18.0415ZM161.215 18.0415H161.673V19.4824H161.215V18.0415ZM162.912 19.2446H162.391L162.32 19.4824H161.853L162.408 18.0415H162.906L163.462 19.4824H162.984L162.912 19.2446ZM162.816 18.933L162.653 18.4149L162.49 18.933H162.816ZM163.612 18.0415H164.039L164.596 18.8386V18.0415H165.026V19.4824H164.596L164.042 18.6909V19.4824H163.612V18.0415ZM165.226 18.0415H166.615V18.3973H166.149V19.4824H165.692V18.3973H165.226V18.0415Z" fill="#3E989F"/>
<path fill-rule="evenodd" clip-rule="evenodd" d="M148.45 19.5202L149.797 19.0875L149.361 18.0986C149.037 18.5063 148.717 19.033 148.45 19.5202ZM147.991 14.9919L145.348 9L126 10.1181L131.36 25L141.679 21.6907C141.025 20.731 140.782 19.5901 141.541 19.0321C142.39 18.4081 143.667 19.13 144.488 20.1567C145.275 18.8098 147.485 15.7005 147.991 14.9919Z" fill="#3E989F"/>
<path fill-rule="evenodd" clip-rule="evenodd" d="M144.746 13.33C145.557 13.33 146.213 12.6999 146.213 11.9226C146.213 11.1457 145.557 10.5156 144.746 10.5156C143.936 10.5156 143.28 11.1457 143.28 11.923C143.28 12.6999 143.936 13.33 144.746 13.33ZM143.547 13.9404H145.946V20.316H143.546L143.547 13.9404ZM142.364 15.801C142.381 15.8113 142.395 15.8027 142.395 15.7826V14.1679C142.394 14.157 142.391 14.1463 142.386 14.1368C142.38 14.1274 142.373 14.1193 142.363 14.1133C142.363 14.1133 142.049 13.9043 141.088 13.8464C141.037 13.8176 140.201 13.8133 139.969 13.8464C136.479 14.1309 136.35 16.7002 136.35 16.8174V17.4415C136.35 17.5183 136.35 20.1447 139.969 20.3774C140.322 20.4048 141.015 20.3774 141.088 20.3774C141.921 20.3774 142.499 20.122 142.499 20.122C142.509 20.1172 142.517 20.11 142.523 20.1012C142.529 20.0924 142.532 20.0822 142.532 20.0718V18.5588C142.532 18.5386 142.519 18.5313 142.501 18.542C142.501 18.542 142.243 18.7541 141.104 18.8669C140.781 18.9039 140.628 18.8867 140.511 18.8669C138.896 18.5905 138.819 17.3861 138.819 17.3861C138.816 17.362 138.815 17.3378 138.815 17.3136V16.8522C138.815 16.832 138.817 16.7994 138.819 16.7792C138.819 16.7792 138.929 15.4894 140.511 15.3534H141.104C141.803 15.4491 142.364 15.801 142.364 15.801ZM129.693 20.2915C129.693 20.3117 129.709 20.328 129.729 20.328H132.067C132.076 20.3277 132.085 20.3237 132.092 20.3168C132.099 20.31 132.102 20.3009 132.102 20.2915V18.4412C132.102 18.421 132.119 18.4055 132.138 18.4068C132.138 18.4068 135.87 18.6815 135.87 16.1324C135.87 14.1215 133.529 13.9004 132.758 13.9378H129.729C129.72 13.938 129.71 13.942 129.704 13.9488C129.697 13.9556 129.693 13.9648 129.693 13.9743L129.693 20.2915ZM132.061 16.9934V15.3267H132.633C132.633 15.3267 133.465 15.3649 133.53 15.9405C133.545 15.9856 133.541 16.2676 133.53 16.283C133.422 16.9612 132.7 16.9938 132.7 16.9938L132.061 16.9934Z" fill="#FEFEFE"/>
<path fill-rule="evenodd" clip-rule="evenodd" d="M144.813 23.3941C145.007 23.3941 145.157 23.3941 145.403 23.2825C146.256 22.8267 149.123 15.7003 152.148 13.5083C152.17 13.4927 152.189 13.474 152.205 13.453C152.226 13.4242 152.226 13.3946 152.226 13.3946C152.226 13.3946 152.226 13.2478 151.778 13.2478C149.085 13.1731 146.285 18.9169 144.813 21.1896C144.795 21.2145 144.693 21.1896 144.693 21.1896C144.693 21.1896 143.707 20.0054 142.849 19.5504C142.78 19.5244 142.706 19.5136 142.632 19.5187C142.565 19.5187 142.166 19.6002 141.981 19.7998C141.761 20.0355 141.766 20.1677 141.767 20.4544C141.767 20.4776 141.782 20.572 141.81 20.6205C142.019 20.9935 142.976 22.3322 143.76 23.0713C143.882 23.1589 144.067 23.3941 144.813 23.3941Z" fill="#2BBC5D"/>
<path d="M152.936 12.9212H155.136C155.57 12.9212 155.919 12.9787 156.185 13.0933C156.453 13.2084 156.674 13.3727 156.849 13.5869C157.023 13.8015 157.149 14.0513 157.228 14.3359C157.307 14.6205 157.346 14.9222 157.346 15.2407C157.346 15.7399 157.287 16.1279 157.169 16.4039C157.062 16.6661 156.897 16.902 156.685 17.0949C156.478 17.2799 156.256 17.4031 156.019 17.4649C155.694 17.5499 155.4 17.5924 155.136 17.5924H152.936V12.9212ZM154.417 13.9792V16.5314H154.78C155.089 16.5314 155.309 16.4983 155.44 16.4326C155.571 16.3644 155.673 16.2481 155.747 16.082C155.821 15.9146 155.858 15.6433 155.858 15.2695C155.858 14.7746 155.775 14.4359 155.61 14.2531C155.444 14.0707 155.169 13.9792 154.786 13.9792H154.417ZM157.869 16.0468L159.278 15.9609C159.309 16.1841 159.37 16.3541 159.464 16.4708C159.617 16.6597 159.835 16.7541 160.118 16.7541C160.33 16.7541 160.492 16.7065 160.605 16.6108C160.721 16.5133 160.778 16.4005 160.778 16.273C160.778 16.1519 160.724 16.0438 160.615 15.9481C160.506 15.8528 160.253 15.7622 159.857 15.6776C159.207 15.5351 158.744 15.3459 158.467 15.1102C158.188 14.8741 158.049 14.5737 158.049 14.2089C158.049 13.9685 158.119 13.7423 158.261 13.5298C158.405 13.3152 158.62 13.1478 158.905 13.0264C159.193 12.9032 159.586 12.8418 160.086 12.8418C160.698 12.8418 161.164 12.9534 161.484 13.1766C161.807 13.3972 161.999 13.7496 162.06 14.2342L160.664 14.3136C160.627 14.1033 160.548 13.9505 160.429 13.8548C160.311 13.7595 160.147 13.7114 159.938 13.7114C159.766 13.7114 159.636 13.7474 159.549 13.82C159.508 13.8502 159.475 13.8892 159.453 13.934C159.43 13.9787 159.418 14.028 159.418 14.0779C159.418 14.1522 159.455 14.2196 159.526 14.2788C159.596 14.3402 159.761 14.3977 160.023 14.4505C160.67 14.5866 161.134 14.7248 161.413 14.8651C161.694 15.0029 161.897 15.175 162.024 15.3811C162.152 15.5871 162.217 15.8176 162.217 16.0721C162.218 16.3668 162.129 16.6552 161.962 16.9005C161.792 17.1537 161.554 17.346 161.249 17.4774C160.944 17.607 160.559 17.6718 160.095 17.6718C159.28 17.6718 158.716 17.519 158.402 17.213C158.088 16.9074 157.91 16.5185 157.869 16.0468ZM162.652 16.0468L164.061 15.9609C164.091 16.1841 164.154 16.3541 164.247 16.4708C164.4 16.6597 164.618 16.7541 164.901 16.7541C165.112 16.7541 165.275 16.7065 165.388 16.6108C165.504 16.5133 165.562 16.4005 165.562 16.273C165.562 16.1519 165.507 16.0438 165.398 15.9481C165.289 15.8528 165.036 15.7622 164.639 15.6776C163.99 15.5351 163.527 15.3459 163.25 15.1102C162.971 14.8741 162.832 14.5737 162.832 14.2089C162.832 13.9685 162.902 13.7423 163.044 13.5298C163.188 13.3152 163.403 13.1478 163.688 13.0264C163.976 12.9032 164.369 12.8418 164.868 12.8418C165.481 12.8418 165.947 12.9534 166.267 13.1766C166.59 13.3972 166.782 13.7496 166.843 14.2342L165.447 14.3136C165.41 14.1033 165.332 13.9505 165.211 13.8548C165.094 13.7595 164.93 13.7114 164.721 13.7114C164.549 13.7114 164.42 13.7474 164.332 13.82C164.292 13.8502 164.259 13.8892 164.236 13.934C164.213 13.9787 164.201 14.028 164.202 14.0779C164.202 14.1522 164.237 14.2196 164.309 14.2788C164.379 14.3402 164.545 14.3977 164.806 14.4505C165.454 14.5866 165.916 14.7248 166.196 14.8651C166.477 15.0029 166.681 15.175 166.807 15.3811C166.936 15.5871 167 15.8176 167 16.0721C167.001 16.3668 166.913 16.6552 166.745 16.9005C166.575 17.1537 166.338 17.346 166.032 17.4774C165.727 17.607 165.342 17.6718 164.878 17.6718C164.063 17.6718 163.499 17.519 163.185 17.213C162.871 16.9074 162.693 16.5185 162.652 16.0468Z" fill="#3E989F"/>
</g>
</g>
<g clip-path="url(#clip2_53_2728)">
<path d="M228 0H186C183.239 0 181 2.23858 181 5V27C181 29.7614 183.239 32 186 32H228C230.761 32 233 29.7614 233 27V5C233 2.23858 230.761 0 228 0Z" fill="white" fill-opacity="0.08"/>
<path d="M187.577 23.7326C187.458 23.3544 187.291 23.0961 186.904 23.0961C186.683 23.0869 186.507 23.2622 186.498 23.4835C186.498 23.4928 186.498 23.5112 186.498 23.5204C186.498 23.7971 186.683 23.9263 187.052 24.0923C187.605 24.3598 187.882 24.5535 187.882 24.9778C187.882 25.5681 187.338 25.8725 186.83 25.8725C186.563 25.8725 186.295 25.8079 186.065 25.688C186.037 25.5035 185.973 25.1438 185.945 24.9317L186.129 24.8948C186.249 25.3098 186.471 25.6419 186.923 25.6419C187.162 25.6511 187.365 25.4759 187.375 25.236C187.375 25.2268 187.375 25.2176 187.375 25.2084C187.375 24.9224 187.199 24.7656 186.858 24.5996C186.406 24.3782 186.037 24.1753 186.037 23.7049C186.037 23.2345 186.434 22.8748 187.042 22.8748C187.255 22.884 187.458 22.9117 187.66 22.9578C187.679 23.1146 187.725 23.5204 187.753 23.6772L187.577 23.7326Z" fill="white"/>
<path d="M190.694 25.2453C190.279 25.7618 189.827 25.8725 189.625 25.8725C188.841 25.8725 188.361 25.2268 188.361 24.4797C188.352 24.0647 188.499 23.6588 188.776 23.3544C189.016 23.0685 189.366 22.8932 189.735 22.884C190.279 22.8932 190.722 23.336 190.722 23.8894C190.713 24.0185 190.694 24.0739 190.593 24.1015C190.464 24.1292 189.634 24.1846 188.868 24.2122C188.85 25.0793 189.376 25.4298 189.837 25.4298C190.123 25.4205 190.39 25.3006 190.584 25.0977L190.694 25.2453ZM189.588 23.1238C189.292 23.1238 188.997 23.4005 188.905 23.9263C189.265 23.9263 189.625 23.9263 190.012 23.9078C190.132 23.9078 190.169 23.871 190.169 23.7787C190.178 23.4374 189.947 23.1331 189.588 23.1238Z" fill="white"/>
<path d="M193.62 25.2172C193.334 25.5953 192.9 25.872 192.513 25.872C191.692 25.872 191.203 25.2079 191.203 24.5162C191.203 24.0088 191.424 23.5846 191.858 23.2525C192.135 23.0311 192.485 22.902 192.845 22.8835C193.057 22.8743 193.269 22.9297 193.444 23.0588C193.509 23.0957 193.555 23.1695 193.546 23.2433C193.537 23.3816 193.444 23.4923 193.315 23.5384C193.288 23.5384 193.26 23.5292 193.195 23.4739C193.02 23.3078 192.79 23.2064 192.541 23.2064C192.116 23.2064 191.738 23.5661 191.738 24.2394C191.729 25.1341 192.347 25.4385 192.725 25.4385C192.993 25.4385 193.214 25.3647 193.509 25.0788L193.62 25.2172Z" fill="white"/>
<path d="M197.114 25.6512C196.782 25.7065 196.45 25.7803 196.127 25.8725V25.3745C195.777 25.6604 195.491 25.8725 195.14 25.8725C194.707 25.8725 194.329 25.605 194.329 24.904V23.6496C194.329 23.2991 194.273 23.2622 194.117 23.2253L193.932 23.1884V23.0224C194.246 23.0039 194.55 22.9578 194.855 22.9025C194.836 23.1054 194.836 23.419 194.836 23.8433V24.7196C194.836 25.2914 195.131 25.4482 195.426 25.4482C195.694 25.439 195.943 25.3283 196.127 25.1346V23.6312C196.127 23.2807 196.054 23.2345 195.832 23.2069L195.629 23.1792V23.0132C195.971 22.9947 196.312 22.9578 196.644 22.8933V25.0608C196.644 25.3837 196.699 25.4298 196.939 25.439L197.124 25.4482L197.114 25.6512Z" fill="white"/>
<path d="M198.933 25.7982H197.448V25.6137C197.854 25.5768 197.891 25.5399 197.891 25.1248V23.7874C197.891 23.3631 197.863 23.3446 197.494 23.2985V23.1325C197.808 23.0864 198.112 22.9941 198.407 22.865V23.5752C198.628 23.2432 198.905 22.8835 199.228 22.8835C199.468 22.8835 199.606 23.031 199.606 23.1971C199.597 23.3446 199.514 23.483 199.385 23.5568C199.329 23.5937 199.265 23.5937 199.219 23.5476C199.117 23.4461 199.043 23.3815 198.933 23.3815C198.794 23.3815 198.555 23.5845 198.416 23.9073V25.1248C198.416 25.5491 198.453 25.586 198.942 25.6229L198.933 25.7982Z" fill="white"/>
<path d="M199.892 25.7985V25.614C200.298 25.5771 200.344 25.5402 200.344 25.1067V23.7785C200.344 23.3819 200.325 23.3542 199.938 23.2896V23.1328C200.252 23.0775 200.556 22.9945 200.851 22.8746V25.1067C200.851 25.5494 200.897 25.5771 201.312 25.614V25.7985H199.892ZM200.565 22.2381C200.381 22.2289 200.233 22.0813 200.224 21.8968C200.224 21.7031 200.371 21.5463 200.565 21.5371H200.574C200.759 21.5371 200.906 21.6939 200.906 21.8784V21.8876C200.897 22.0813 200.75 22.2381 200.565 22.2381Z" fill="white"/>
<path d="M202.872 25.7891C202.789 25.8353 202.696 25.8629 202.595 25.8722C202.18 25.8722 201.959 25.6231 201.959 25.1066V23.2249H201.516L201.488 23.1419L201.663 22.9575H201.959V22.4132C202.078 22.2841 202.272 22.1181 202.392 21.989L202.494 21.9982C202.484 22.2657 202.475 22.6438 202.475 22.9575H203.213C203.268 23.0405 203.25 23.1604 203.176 23.2249H202.475V24.876C202.475 25.4017 202.678 25.494 202.853 25.494C202.992 25.4848 203.121 25.4571 203.25 25.3925L203.305 25.5586L202.872 25.7891Z" fill="white"/>
<path d="M206.542 23.1327C206.21 23.188 206.136 23.2342 205.97 23.6031C205.804 23.9721 205.638 24.4056 205.195 25.5309C204.946 26.112 204.734 26.7023 204.549 27.3018C204.513 27.4402 204.439 27.4679 204.356 27.4679C204.153 27.4679 203.959 27.3203 203.959 27.1543C203.959 27.0712 204.005 27.0159 204.097 26.9329C204.273 26.8038 204.42 26.647 204.531 26.4533C204.669 26.1858 204.762 25.9552 204.798 25.8722C204.826 25.7891 204.826 25.6877 204.789 25.6047C204.54 24.8668 204.19 24.0735 203.996 23.6123C203.848 23.2526 203.793 23.1788 203.443 23.1327V22.9575H204.743V23.1327C204.448 23.1788 204.411 23.2434 204.494 23.4832L205.121 25.0697C205.306 24.627 205.564 23.9075 205.693 23.5017C205.767 23.2526 205.73 23.188 205.352 23.1327V22.9575H206.533L206.542 23.1327Z" fill="white"/>
<path d="M210.472 15.0343C210.491 14.859 210.426 14.693 210.297 14.5823C210.177 14.4716 209.993 14.4255 209.744 14.4255C209.532 14.4163 209.319 14.4716 209.144 14.5823C209.006 14.6653 208.914 14.8129 208.877 14.9697C208.831 15.1173 208.895 15.2833 209.034 15.3663C209.19 15.4678 209.366 15.5324 209.541 15.5693L209.956 15.6707C210.205 15.7261 210.436 15.8183 210.657 15.9474C210.841 16.0581 210.998 16.2149 211.1 16.4086C211.201 16.6208 211.22 16.8606 211.173 17.0912C211.109 17.5155 210.869 17.9029 210.509 18.1427C210.14 18.4009 209.661 18.5393 209.061 18.5393C208.462 18.5393 208.019 18.4102 207.724 18.1335C207.419 17.866 207.299 17.4693 207.373 16.9528H208.36C208.333 17.1926 208.397 17.3771 208.554 17.497C208.738 17.6262 208.96 17.6907 209.19 17.6815C209.421 17.6907 209.642 17.6354 209.845 17.5155C210.002 17.4232 210.113 17.2664 210.15 17.082C210.186 16.9344 210.122 16.7868 210.002 16.7038C209.827 16.5931 209.633 16.5193 209.43 16.4824L208.923 16.3533C208.535 16.2518 208.24 16.1042 208.037 15.8921C207.834 15.6799 207.761 15.4032 207.825 15.0435C207.871 14.7576 208 14.4901 208.194 14.2779C208.397 14.0566 208.646 13.8813 208.932 13.7706C209.246 13.6415 209.569 13.5861 209.91 13.5861C210.223 13.5769 210.537 13.6415 210.823 13.7706C211.054 13.8813 211.247 14.0566 211.367 14.2872C211.487 14.527 211.524 14.7945 211.469 15.0527L210.472 15.0343Z" fill="white"/>
<path d="M212.639 18.53C212.298 18.53 212.021 18.4377 211.828 18.2533C211.625 18.0688 211.56 17.8013 211.616 17.4416C211.643 17.2018 211.754 16.9804 211.911 16.8051C212.068 16.6483 212.261 16.5284 212.473 16.4639C212.695 16.3901 212.935 16.3439 213.165 16.3255C213.396 16.3071 213.626 16.2702 213.857 16.224C213.977 16.2056 214.078 16.1226 214.097 16.0027V15.9842C214.124 15.8643 214.097 15.7352 214.014 15.6337C213.912 15.5415 213.783 15.4954 213.645 15.5138C213.488 15.5046 213.331 15.5507 213.193 15.6337C213.073 15.7075 212.981 15.809 212.925 15.9289L212.012 15.8551C212.132 15.523 212.363 15.2463 212.658 15.0711C212.999 14.8681 213.377 14.7667 213.774 14.7851C214.023 14.7851 214.272 14.822 214.503 14.9143C214.706 14.9881 214.881 15.1264 215.001 15.3109C215.121 15.4954 215.148 15.726 215.102 16.0119L214.696 18.4654H213.737L213.82 17.9673H213.792C213.672 18.1426 213.516 18.2809 213.331 18.3824C213.119 18.4839 212.879 18.5392 212.639 18.53ZM213.045 17.8382C213.257 17.8382 213.46 17.7736 213.617 17.6445C213.774 17.5246 213.875 17.3586 213.912 17.1649L213.977 16.7775C213.912 16.8144 213.848 16.8328 213.783 16.8513C213.7 16.8697 213.608 16.8882 213.506 16.9066L213.248 16.9435C213.091 16.9619 212.935 17.0081 212.796 17.0911C212.676 17.1556 212.603 17.2755 212.584 17.4139C212.556 17.5246 212.593 17.6445 212.686 17.7275C212.787 17.8105 212.916 17.8474 213.045 17.8382Z" fill="white"/>
<path d="M218.063 14.8315L217.934 15.5878H217.215L216.735 18.4564H215.73L216.209 15.5878H215.693L215.822 14.8315H216.338L216.384 14.5732C216.449 14.1766 216.606 13.8814 216.864 13.6877C217.122 13.494 217.436 13.3926 217.768 13.3926C217.906 13.3926 218.045 13.4018 218.183 13.4295C218.275 13.4479 218.367 13.4664 218.46 13.494L218.165 14.2504C218.118 14.2319 218.072 14.2227 218.026 14.2135C217.971 14.2043 217.916 14.195 217.851 14.195C217.731 14.1858 217.62 14.2227 217.528 14.2965C217.454 14.3795 217.408 14.4718 217.39 14.5824L217.353 14.8223H218.063V14.8315Z" fill="white"/>
<path d="M219.583 18.5301C219.02 18.5301 218.614 18.3641 218.347 18.032C218.079 17.6999 217.996 17.2388 218.098 16.6669C218.153 16.3164 218.282 15.9843 218.476 15.6892C218.66 15.4125 218.909 15.1911 219.195 15.0343C219.49 14.8775 219.822 14.7945 220.164 14.7945C220.45 14.7852 220.736 14.859 220.994 14.9974C221.234 15.1357 221.409 15.3479 221.501 15.6062C221.603 15.8829 221.621 16.2241 221.557 16.63L221.51 16.9067H219.048V16.9344C219.002 17.2203 219.038 17.4325 219.158 17.5708C219.278 17.7092 219.472 17.783 219.721 17.783C219.878 17.783 220.035 17.7461 220.173 17.6723C220.311 17.5985 220.413 17.4878 220.487 17.3587L221.409 17.4232C221.28 17.7553 221.04 18.0412 220.736 18.2349C220.394 18.4378 219.989 18.5485 219.583 18.5301ZM219.158 16.2795H220.671C220.717 16.095 220.671 15.9013 220.56 15.7445C220.44 15.5969 220.256 15.5231 220.062 15.5324C219.924 15.5324 219.776 15.5693 219.656 15.6338C219.527 15.6984 219.426 15.7999 219.334 15.9105C219.251 16.0212 219.195 16.1504 219.158 16.2795Z" fill="white"/>
<path d="M204.355 8.40217H204.023C203.995 8.24537 203.922 8.08857 203.82 7.95943C203.719 7.8303 203.59 7.71962 203.442 7.64583C203.073 7.47057 202.649 7.49825 202.307 7.71039C202.114 7.83953 201.957 8.01478 201.855 8.22692C201.736 8.49441 201.68 8.78035 201.689 9.06629C201.68 9.35222 201.736 9.64738 201.855 9.90565C201.948 10.1178 202.104 10.3023 202.307 10.4222C202.649 10.6343 203.073 10.6528 203.442 10.4867C203.59 10.413 203.719 10.3115 203.82 10.1824C203.922 10.0532 203.986 9.90565 204.023 9.73962H204.355C204.318 9.95177 204.235 10.1547 204.106 10.3392C203.977 10.5144 203.811 10.662 203.617 10.7635C203.138 10.9941 202.584 10.9664 202.132 10.6897C201.892 10.5329 201.699 10.3115 201.579 10.044C201.44 9.73962 201.376 9.40756 201.376 9.06629C201.367 8.72501 201.431 8.39295 201.579 8.08857C201.699 7.82108 201.892 7.59971 202.132 7.4429C202.584 7.16619 203.147 7.13852 203.617 7.36911C203.811 7.47057 203.977 7.61816 204.106 7.79341C204.226 7.97788 204.318 8.1808 204.355 8.40217Z" fill="white"/>
<path d="M204.994 10.8742V8.17161H205.299V8.58668H205.317C205.372 8.44833 205.474 8.33764 205.603 8.25463C205.741 8.17161 205.898 8.12549 206.055 8.12549C206.119 8.12549 206.175 8.13472 206.239 8.14394C206.295 8.15317 206.341 8.18084 206.387 8.20851L206.276 8.476C206.193 8.4391 206.11 8.42988 206.027 8.42988C205.898 8.42988 205.769 8.45755 205.649 8.52212C205.428 8.64202 205.289 8.87262 205.299 9.12166V10.865H204.994V10.8742Z" fill="white"/>
<path d="M207.796 10.9298C207.565 10.939 207.335 10.8744 207.141 10.7545C206.956 10.6346 206.809 10.4686 206.717 10.2657C206.615 10.0351 206.56 9.79529 206.569 9.54625C206.56 9.29721 206.615 9.04816 206.717 8.81757C206.809 8.61465 206.947 8.44862 207.132 8.31949C207.316 8.19958 207.528 8.13501 207.75 8.13501C207.943 8.13501 208.137 8.18113 208.303 8.27337C208.488 8.37483 208.626 8.52241 208.727 8.70689C208.847 8.93748 208.903 9.19574 208.893 9.45401V9.61081H206.883C206.873 9.8783 206.966 10.1458 207.141 10.3579C207.307 10.5424 207.547 10.6438 207.796 10.6346C207.962 10.6438 208.128 10.5977 208.266 10.5055C208.377 10.4317 208.469 10.321 208.524 10.1919L208.82 10.2841C208.746 10.4686 208.626 10.6162 208.46 10.7268C208.275 10.8744 208.036 10.939 207.796 10.9298ZM206.883 9.34332H208.571C208.571 9.1773 208.534 9.02049 208.469 8.87291C208.405 8.73456 208.303 8.62387 208.183 8.54086C208.054 8.45784 207.906 8.41173 207.759 8.42095C207.602 8.42095 207.454 8.46707 207.325 8.55008C207.196 8.6331 207.095 8.753 207.021 8.88214C206.938 9.02049 206.892 9.1773 206.883 9.34332Z" fill="white"/>
<path d="M210.488 10.9294C210.285 10.9294 210.082 10.8741 209.907 10.7542C209.732 10.6343 209.603 10.459 209.52 10.2653C209.418 10.0347 209.372 9.7765 209.381 9.52746C209.372 9.27842 209.428 9.02937 209.52 8.79878C209.603 8.60508 209.741 8.42983 209.907 8.30992C210.082 8.19001 210.285 8.13467 210.488 8.13467C210.627 8.13467 210.774 8.16234 210.903 8.22691C211.005 8.28225 211.097 8.35604 211.162 8.43905C211.226 8.51284 211.272 8.59586 211.309 8.6881H211.337V7.27686H211.65V10.8741H211.346V10.376H211.309C211.272 10.4682 211.217 10.5513 211.152 10.625C211.079 10.7173 210.986 10.7911 210.885 10.8372C210.774 10.9018 210.627 10.9294 210.488 10.9294ZM210.525 10.6435C210.682 10.6435 210.839 10.5974 210.968 10.4959C211.097 10.3945 211.199 10.2561 211.254 10.0993C211.318 9.91486 211.355 9.72116 211.355 9.51823C211.355 9.32453 211.328 9.13084 211.263 8.94636C211.208 8.78956 211.106 8.66042 210.986 8.55896C210.719 8.36526 210.35 8.36526 210.082 8.55896C209.953 8.66042 209.861 8.79878 209.806 8.95558C209.741 9.13084 209.713 9.32453 209.713 9.51823C209.713 9.71193 209.741 9.90563 209.806 10.0901C209.861 10.2469 209.963 10.3852 210.092 10.4867C210.202 10.5881 210.359 10.6435 210.525 10.6435Z" fill="white"/>
<path d="M212.647 7.71105C212.583 7.71105 212.527 7.69261 212.481 7.64649C212.435 7.60959 212.407 7.54503 212.407 7.48968C212.407 7.42512 212.435 7.36978 212.481 7.33288C212.527 7.28676 212.583 7.26831 212.647 7.26831C212.712 7.26831 212.767 7.28676 212.813 7.33288C212.859 7.36978 212.887 7.43434 212.887 7.48968C212.887 7.55425 212.859 7.60959 212.813 7.64649C212.776 7.69261 212.712 7.71105 212.647 7.71105ZM212.49 10.8748V8.17224H212.804V10.8748H212.49Z" fill="white"/>
<path d="M214.63 8.17203V8.44875H214.058V10.1643C214.058 10.3304 214.105 10.4503 214.178 10.5148C214.261 10.5794 214.363 10.6071 214.464 10.6071C214.501 10.6071 214.538 10.6071 214.566 10.5979C214.593 10.5979 214.621 10.5886 214.639 10.5794L214.704 10.8653C214.667 10.8746 214.63 10.893 214.593 10.893C214.427 10.9299 214.252 10.9022 214.095 10.8284C213.865 10.7178 213.717 10.4872 213.736 10.2289V8.44875H213.33V8.17203H213.736V7.52637H214.049V8.17203H214.63Z" fill="white"/>
<path d="M219.493 8.40241H219.161C219.134 8.24561 219.06 8.08881 218.958 7.95968C218.857 7.83055 218.728 7.71986 218.58 7.64607C218.211 7.47082 217.787 7.49849 217.446 7.71064C217.252 7.83977 217.095 8.01502 216.994 8.22717C216.874 8.49466 216.818 8.78059 216.828 9.06652C216.818 9.35246 216.874 9.64762 216.994 9.90588C217.086 10.118 217.243 10.3025 217.446 10.4224C217.787 10.6346 218.211 10.653 218.58 10.487C218.728 10.4132 218.857 10.3117 218.958 10.1826C219.06 10.0535 219.124 9.90588 219.161 9.73986H219.493C219.456 9.952 219.373 10.1549 219.244 10.3394C219.115 10.5147 218.949 10.6622 218.755 10.7637C218.276 10.9943 217.722 10.9666 217.27 10.6899C217.031 10.5331 216.837 10.3117 216.717 10.0442C216.579 9.73986 216.514 9.4078 216.514 9.06652C216.505 8.72524 216.569 8.3932 216.717 8.08881C216.837 7.82132 217.031 7.59995 217.27 7.44315C217.722 7.16644 218.285 7.13877 218.755 7.36936C218.949 7.47082 219.115 7.61839 219.244 7.80287C219.373 7.97812 219.456 8.18104 219.493 8.40241Z" fill="white"/>
<path d="M220.885 10.93C220.728 10.93 220.58 10.9024 220.442 10.8378C220.313 10.7732 220.202 10.681 220.119 10.5611C220.036 10.4319 219.99 10.2751 219.999 10.1183C219.99 9.96156 220.036 9.81398 220.128 9.69407C220.23 9.58338 220.359 9.50037 220.497 9.45425C220.673 9.39891 220.857 9.35279 221.032 9.33434C221.263 9.30667 221.438 9.279 221.558 9.26055C221.678 9.2421 221.743 9.17754 221.743 9.07608V9.00229C221.752 8.83626 221.687 8.67945 221.577 8.56877C221.447 8.45808 221.272 8.40274 221.106 8.41197C220.94 8.40274 220.774 8.44886 220.636 8.5411C220.525 8.61489 220.433 8.71635 220.377 8.84548L220.082 8.7348C220.138 8.59644 220.221 8.47653 220.331 8.38429C220.433 8.30128 220.562 8.23671 220.691 8.1906C220.82 8.1537 220.959 8.13525 221.097 8.13525C221.208 8.13525 221.309 8.1537 221.42 8.17215C221.53 8.19982 221.641 8.24594 221.733 8.3105C221.835 8.38429 221.918 8.47653 221.964 8.58722C222.029 8.72557 222.056 8.88238 222.056 9.03918V10.8747H221.743V10.4504H221.724C221.65 10.5795 221.558 10.6994 221.429 10.7825C221.272 10.8839 221.078 10.9393 220.885 10.93ZM220.931 10.6441C221.078 10.6441 221.235 10.6072 221.364 10.5334C221.484 10.4596 221.577 10.3582 221.65 10.2382C221.715 10.1091 221.752 9.97078 221.752 9.83242V9.44503C221.706 9.48192 221.641 9.50959 221.577 9.51882C221.494 9.53726 221.401 9.55571 221.3 9.57416L221.042 9.61105C220.857 9.6295 220.673 9.68484 220.516 9.76786C220.387 9.84165 220.313 9.98 220.322 10.1276C220.313 10.2751 220.377 10.4135 220.497 10.5057C220.617 10.6072 220.774 10.6533 220.931 10.6441Z" fill="white"/>
<path d="M222.823 10.8747V8.17209H223.127V8.58716H223.146C223.201 8.44881 223.302 8.33812 223.431 8.25511C223.57 8.17209 223.727 8.12598 223.883 8.12598C223.948 8.12598 224.003 8.1352 224.068 8.14442C224.123 8.15365 224.169 8.18132 224.215 8.20899L224.105 8.47648C224.022 8.43958 223.939 8.43036 223.856 8.43036C223.727 8.43036 223.597 8.45803 223.478 8.5226C223.256 8.64251 223.118 8.8731 223.127 9.12214V10.8654H222.823V10.8747Z" fill="white"/>
<path d="M225.505 10.9294C225.302 10.9294 225.099 10.8741 224.924 10.7542C224.749 10.6343 224.619 10.459 224.536 10.2653C224.435 10.0347 224.389 9.7765 224.398 9.52746C224.389 9.27842 224.444 9.02937 224.536 8.79878C224.619 8.60508 224.758 8.42983 224.924 8.30992C225.099 8.19001 225.302 8.13467 225.505 8.13467C225.643 8.13467 225.791 8.16234 225.92 8.22691C226.022 8.28225 226.114 8.35604 226.178 8.43905C226.243 8.51284 226.289 8.59586 226.326 8.6881H226.354V7.27686H226.667V10.8741H226.363V10.376H226.326C226.289 10.4682 226.234 10.5513 226.169 10.625C226.095 10.7173 226.003 10.7911 225.902 10.8372C225.791 10.9018 225.643 10.9294 225.505 10.9294ZM225.542 10.6435C225.699 10.6435 225.855 10.5974 225.985 10.4959C226.114 10.3945 226.215 10.2561 226.271 10.0993C226.335 9.91486 226.372 9.72116 226.372 9.51823C226.372 9.32453 226.344 9.13084 226.28 8.94636C226.224 8.78956 226.132 8.66042 226.003 8.55896C225.736 8.36526 225.367 8.36526 225.099 8.55896C224.97 8.66042 224.878 8.79878 224.822 8.95558C224.758 9.13084 224.73 9.32453 224.73 9.51823C224.73 9.71193 224.758 9.90563 224.822 10.0901C224.878 10.2469 224.979 10.3852 225.108 10.4867C225.219 10.5881 225.376 10.6435 225.542 10.6435Z" fill="white"/>
<path d="M198.59 7.44344C197.972 7.56335 197.335 7.62791 196.708 7.62791C193.452 7.62791 192.225 5.75549 192.142 5.61713V5.60791C192.142 5.60791 192.142 5.60791 192.142 5.61713C192.059 5.75549 190.832 7.62791 187.576 7.62791C186.94 7.62791 186.313 7.56335 185.695 7.44344C185.695 7.44344 184.874 16.7687 192.151 19.8217C199.41 16.7687 198.59 7.44344 198.59 7.44344ZM192.133 18.9639V12.95H187.124C187.06 12.7471 187.005 12.5442 186.949 12.3413C186.617 11.0407 186.442 9.69404 186.442 8.35659C186.82 8.40271 187.198 8.42116 187.567 8.42116C189.947 8.42116 191.386 7.51723 192.142 6.81622V12.95H197.151C196.256 15.8278 194.568 17.8478 192.133 18.9639Z" fill="#839FC7"/>
<path d="M209.383 25.8265V25.6973C209.743 25.6604 209.752 25.6328 209.752 25.1716V23.3822C209.393 24.1846 208.858 25.3745 208.673 25.8265H208.553C208.378 25.3653 207.908 24.2215 207.576 23.4283C207.502 24.9502 207.502 25.2823 207.502 25.3837C207.502 25.6328 207.612 25.6697 207.917 25.6973V25.8265H206.865V25.6973C207.124 25.6697 207.225 25.6143 207.262 25.3745C207.29 25.19 207.299 25.0148 207.409 23.4283C207.428 23.1977 207.382 23.1147 206.994 23.0778V22.9487H207.797L208.756 25.1439L209.771 22.9487H210.573V23.0778C210.195 23.1239 210.149 23.1608 210.158 23.4744L210.177 25.1716C210.195 25.6328 210.204 25.6512 210.592 25.6973V25.8265H209.383Z" fill="#839FC7"/>
<path d="M213.294 25.1163C213.267 25.227 213.147 25.6974 213.101 25.8265H210.924V25.6974C211.339 25.6605 211.366 25.6236 211.366 25.2639V23.5206C211.366 23.1332 211.32 23.1055 210.988 23.0779V22.9487H212.363C212.787 22.9487 212.953 22.9395 213.008 22.9395C213.008 23.041 213.027 23.3822 213.045 23.6221L212.907 23.6405C212.879 23.5206 212.824 23.4007 212.768 23.29C212.695 23.1516 212.602 23.124 212.344 23.124H211.948C211.809 23.124 211.8 23.1332 211.8 23.2716V24.2401H212.28C212.593 24.2401 212.621 24.1755 212.676 23.8711H212.824V24.7935H212.676C212.621 24.4706 212.584 24.4245 212.27 24.4245H211.791V25.2823C211.791 25.5959 211.874 25.6328 212.104 25.6328H212.501C212.768 25.6328 212.815 25.5959 212.916 25.476C213.018 25.3469 213.101 25.2085 213.165 25.061L213.294 25.1163Z" fill="#839FC7"/>
<path d="M215.941 23.6589C215.904 23.5297 215.858 23.4006 215.794 23.2807C215.72 23.17 215.683 23.1331 215.434 23.1331H215.019V25.273C215.019 25.6235 215.056 25.6696 215.471 25.6973V25.8264H214.143V25.6973C214.548 25.6696 214.585 25.6327 214.585 25.273V23.1331H214.207C213.967 23.1331 213.894 23.1608 213.82 23.2899C213.755 23.4098 213.709 23.5297 213.672 23.6589H213.534C213.561 23.3821 213.589 23.087 213.598 22.8472H213.709C213.774 22.9486 213.829 22.9486 213.949 22.9486H215.701C215.794 22.9579 215.886 22.921 215.932 22.8472H216.043C216.043 23.0501 216.061 23.3821 216.08 23.6404L215.941 23.6589Z" fill="#839FC7"/>
<path d="M219.084 25.863C219.029 25.863 218.983 25.863 218.927 25.8538C218.558 25.8353 218.392 25.7431 218.208 25.4848C218.042 25.2542 217.885 24.9775 217.747 24.7469C217.664 24.6086 217.608 24.5809 217.396 24.5809H217.258V25.2635C217.258 25.6324 217.304 25.6601 217.654 25.697V25.8261H216.437V25.697C216.796 25.6601 216.833 25.6416 216.833 25.2635V23.5109C216.833 23.142 216.787 23.1235 216.437 23.0867V22.9575H217.59C217.922 22.9575 218.143 22.9944 218.318 23.1143C218.512 23.2435 218.632 23.4648 218.623 23.7046C218.623 24.0828 218.374 24.3226 218.051 24.461C218.125 24.5993 218.318 24.8945 218.448 25.0882C218.549 25.245 218.669 25.4018 218.798 25.5402C218.881 25.6416 218.992 25.7062 219.112 25.7431L219.084 25.863ZM217.442 24.4241C217.664 24.4241 217.811 24.3872 217.922 24.295C218.088 24.1658 218.171 23.9629 218.162 23.7508C218.162 23.2803 217.857 23.1051 217.534 23.1051C217.451 23.0959 217.378 23.1143 217.304 23.1512C217.267 23.1789 217.258 23.225 217.258 23.3357V24.4149L217.442 24.4241Z" fill="#839FC7"/>
<path d="M219.262 25.8261V25.697C219.621 25.6601 219.658 25.6416 219.658 25.2635V23.5202C219.658 23.142 219.621 23.1235 219.262 23.0867V22.9575H220.479V23.0867C220.119 23.1235 220.082 23.142 220.082 23.5202V25.2635C220.082 25.6416 220.119 25.6601 220.479 25.697V25.8261H219.262Z" fill="#839FC7"/>
<path d="M223.559 25.1068C223.494 25.3374 223.411 25.5587 223.319 25.7801C223.051 25.8447 222.784 25.8816 222.507 25.8908C221.428 25.8908 220.893 25.1713 220.893 24.415C220.893 23.5111 221.585 22.8838 222.59 22.8838C222.876 22.8931 223.153 22.93 223.429 22.9853C223.448 23.1882 223.476 23.4649 223.512 23.6771L223.365 23.7047C223.273 23.4004 223.162 23.2251 222.941 23.1329C222.793 23.0775 222.645 23.0499 222.489 23.0499C221.778 23.0499 221.4 23.5941 221.4 24.3135C221.4 25.1621 221.843 25.7063 222.535 25.7063C222.968 25.7063 223.199 25.5034 223.429 25.0514L223.559 25.1068Z" fill="#839FC7"/>
<path d="M225.55 23.631C225.476 23.345 225.347 23.0499 224.932 23.0499C224.6 23.0499 224.471 23.2897 224.471 23.5203C224.471 23.8154 224.665 23.9723 225.034 24.1567C225.55 24.4242 225.799 24.6364 225.799 25.0607C225.799 25.5311 225.393 25.8908 224.812 25.8908C224.573 25.8816 224.342 25.8355 224.121 25.7432C224.084 25.6233 224.028 25.2912 224.001 25.0607L224.148 25.0238C224.241 25.3189 224.443 25.7155 224.895 25.7155C225.154 25.734 225.375 25.5311 225.393 25.2728C225.393 25.2544 225.393 25.2359 225.393 25.2175C225.393 24.8946 225.218 24.7563 224.831 24.5441C224.37 24.2951 224.102 24.0829 224.102 23.6586C224.102 23.2528 224.434 22.8838 225.034 22.8838C225.237 22.8931 225.43 22.9207 225.624 22.9669C225.643 23.1237 225.661 23.3174 225.698 23.6033L225.55 23.631Z" fill="#839FC7"/>
<path d="M226.28 23.3358C226.28 23.2713 226.289 23.2067 226.317 23.1514C226.335 23.096 226.372 23.0499 226.409 23.0038C226.446 22.9577 226.492 22.93 226.548 22.9023C226.658 22.8562 226.778 22.8562 226.889 22.9023C226.944 22.9208 226.99 22.9577 227.027 23.0038C227.064 23.0499 227.101 23.096 227.119 23.1514C227.138 23.2067 227.156 23.2713 227.156 23.3358C227.156 23.4004 227.147 23.465 227.119 23.5203C227.101 23.5757 227.064 23.6218 227.027 23.6679C226.99 23.714 226.944 23.7417 226.889 23.7694C226.778 23.8155 226.658 23.8155 226.548 23.7694C226.492 23.7417 226.446 23.714 226.409 23.6679C226.372 23.6218 226.335 23.5757 226.317 23.5203C226.289 23.465 226.28 23.4004 226.28 23.3358ZM226.354 23.3358C226.354 23.3912 226.363 23.4373 226.382 23.4926C226.4 23.5388 226.428 23.5757 226.465 23.6126C226.501 23.6494 226.538 23.6771 226.584 23.6956C226.677 23.7325 226.778 23.7325 226.861 23.6956C226.907 23.6771 226.944 23.6494 226.981 23.6126C227.018 23.5757 227.036 23.5388 227.055 23.4926C227.073 23.4465 227.083 23.3912 227.083 23.3358C227.083 23.2805 227.073 23.2344 227.055 23.179C227.036 23.1329 227.009 23.0868 226.981 23.0591C226.944 23.0222 226.907 22.9946 226.861 22.9761C226.769 22.9392 226.667 22.9392 226.584 22.9761C226.538 22.9946 226.501 23.0222 226.465 23.0591C226.428 23.096 226.4 23.1329 226.382 23.179C226.363 23.2344 226.354 23.2897 226.354 23.3358ZM226.723 23.382H226.631V23.5941H226.538V23.0684H226.714C226.769 23.0684 226.815 23.0776 226.861 23.1052C226.898 23.1329 226.917 23.179 226.917 23.2252C226.917 23.2805 226.88 23.3266 226.833 23.3451C226.861 23.3543 226.88 23.3726 226.898 23.3911C226.907 23.4188 226.917 23.4373 226.917 23.465V23.5019C226.917 23.5295 226.917 23.5572 226.926 23.5849V23.5941H226.833C226.824 23.5757 226.824 23.5664 226.824 23.548C226.824 23.5295 226.824 23.5111 226.824 23.5019V23.465C226.824 23.4373 226.815 23.4189 226.806 23.4004C226.778 23.3912 226.75 23.382 226.723 23.382ZM226.631 23.2989H226.732C226.75 23.2989 226.778 23.2897 226.797 23.2805C226.815 23.2713 226.824 23.2528 226.824 23.2252C226.824 23.1975 226.815 23.179 226.797 23.1606C226.769 23.1514 226.741 23.1421 226.714 23.1421H226.631V23.2989Z" fill="#839FC7"/>
</g>
<defs>
<clipPath id="clip0_53_2728">
<rect width="52" height="32" fill="white"/>
</clipPath>
<clipPath id="clip1_53_2728">
<rect width="52" height="32" fill="white" transform="translate(121)"/>
</clipPath>
<clipPath id="clip2_53_2728">
<rect width="52" height="32" fill="white" transform="translate(181)"/>
</clipPath>
</defs>
</svg>
