<svg width="232" height="32" viewBox="0 0 232 32" fill="none" xmlns="http://www.w3.org/2000/svg">
<g clip-path="url(#clip0_53_2651)">
<path d="M47 0H5C2.23858 0 0 2.23858 0 5V27C0 29.7614 2.23858 32 5 32H47C49.7614 32 52 29.7614 52 27V5C52 2.23858 49.7614 0 47 0Z" fill="white" fill-opacity="0.08"/>
<mask id="mask0_53_2651" style="mask-type:alpha" maskUnits="userSpaceOnUse" x="0" y="0" width="52" height="32">
<path d="M47 0H5C2.23858 0 0 2.23858 0 5V27C0 29.7614 2.23858 32 5 32H47C49.7614 32 52 29.7614 52 27V5C52 2.23858 49.7614 0 47 0Z" fill="white"/>
</mask>
<g mask="url(#mask0_53_2651)">
<path d="M2.64211 14.4551H1.86177H1L1.71812 12.9023L3.52225 9.00093L5.43442 9.00091L7.95426 14.4551H6.27597L5.81299 13.3629H3.1075L2.64211 14.4551ZM3.62836 12.1788H5.28011L4.45543 10.2703L3.62836 12.1788ZM15.4583 14.4542V9H13.1434L11.8187 12.5246L10.4614 9.00807L8.12788 9V14.4542H9.59397V10.4353L11.1524 14.4542H12.4381L13.9922 10.4353V14.4542H15.4583ZM21.2455 10.22V9H16.4614V14.4542H21.2455V13.2701H17.9429V12.3013H21.1683V11.153H17.9429V10.22H21.2455ZM25.7981 12.4457L27.7271 14.4551H25.9355L24.1777 12.5175H23.5604V14.4551H22.0943V9.00093L25.3568 9.00091C26.4378 9.00091 27.4064 9.62263 27.4064 10.7704C27.4064 11.7516 26.5898 12.3836 25.7981 12.4457ZM25.9307 10.7951C25.9307 10.5134 25.6382 10.221 25.2362 10.221H23.5603V11.3692H25.2579C25.5518 11.3692 25.9307 11.1574 25.9307 10.7951ZM28.0049 9.00002V14.4542H29.5018V9.00002H28.0049ZM30.2156 11.7495C30.2156 13.3087 31.1648 14.4542 32.7282 14.4542H33.0513L33.6686 13.2629H33.2828C32.3491 13.2629 31.701 12.8193 31.701 11.763C31.701 10.8735 32.2678 10.2918 33.0693 10.2918H34.7489V9H33.1285C31.1542 9.00002 30.2156 10.1519 30.2156 11.7495ZM33.7193 14.4551L36.2415 9.00093L38.1537 9.00091L40.6735 14.4551H38.9952L38.5322 13.3629H35.8267L35.3613 14.4551H33.7193ZM36.3476 12.1788H37.9993L37.1747 10.2703L36.3476 12.1788ZM44.751 14.4542H46.5547V9H45.0886V12.4268L42.7087 9H40.8447V14.4542H42.3108V10.9377L44.751 14.4542ZM16.4614 19.7649V18.5449H11.6773V23.9991H16.4614V22.815H13.1589V21.8461H16.3843V20.6979H13.1589V19.7649H16.4614ZM39.9033 19.7649V18.5449H35.1193V23.9991H39.9033V22.815H36.6008V21.8461H39.8107V20.6979H36.6008V19.7649H39.9033ZM21.2841 18.5449L19.859 20.2516L18.4387 18.5449H16.5916L18.9764 21.3056L16.6471 23.9991H18.4676L19.8131 22.3193L21.1922 23.9991H23.039L20.7054 21.272L23.0588 18.5449H21.2841ZM26.4515 18.5458C27.7803 18.5458 28.5566 19.3423 28.5566 20.3803C28.5566 21.6333 27.5668 22.2776 26.261 22.2776H24.7178V24H23.2131V18.5458H26.4515ZM26.343 19.7793H24.7178V21.0352H26.3382C26.7664 21.0352 27.0664 20.7712 27.0664 20.4072C27.0664 20.0197 26.7649 19.7793 26.343 19.7793ZM32.897 21.9896L34.8261 23.9991H33.0344L31.2766 22.0614H30.6593V23.9991H29.1932V18.5449H32.4557C33.5368 18.5449 34.5054 19.1666 34.5054 20.3144C34.5054 21.2955 33.6887 21.9275 32.897 21.9896ZM33.0296 20.339C33.0296 20.0574 32.7372 19.7649 32.3352 19.7649H30.6593V20.9131H32.3569C32.6507 20.9132 33.0296 20.7014 33.0296 20.339ZM43.5165 22.815H40.5824V23.9991H43.707C44.9979 23.9991 45.6192 23.2175 45.6192 22.2633C45.6192 21.3757 45.0617 20.6979 43.7769 20.6979H42.388C42.0274 20.6979 41.8478 20.4485 41.8478 20.2224C41.8478 20.0024 41.9931 19.7721 42.4651 19.7721H44.9343L45.5516 18.5449H42.6966C40.984 18.5449 40.3962 19.3882 40.3962 20.2628C40.3962 21.2433 41.0381 21.8963 42.1906 21.8963H43.5165C43.9512 21.8963 44.1386 22.1282 44.1386 22.3574C44.1386 22.5967 43.9506 22.815 43.5165 22.815ZM50.8758 21.6061C50.6486 21.0625 50.0991 20.6979 49.1578 20.6979H48.777H47.7688C47.4083 20.6979 47.2287 20.4485 47.2287 20.2224C47.2287 20.0024 47.374 19.7721 47.846 19.7721H49.414H50.3152L50.8758 18.6575L50.9325 18.5449H50.8758H50.2585H48.0775C46.3649 18.5449 45.7771 19.3882 45.7771 20.2628C45.7771 21.2433 46.4189 21.8963 47.5714 21.8963H48.8973C48.9048 21.8963 48.9109 21.8976 48.9182 21.8978C49.3371 21.9056 49.5195 22.1321 49.5195 22.3574C49.5195 22.4388 49.4958 22.5169 49.4501 22.5856C49.3613 22.7191 49.1839 22.8149 48.8973 22.8149H45.9632V23.9991H49.0878C49.5913 23.9991 49.9916 23.879 50.2942 23.6774C50.5684 23.4947 50.7621 23.2447 50.8758 22.9529C50.9584 22.7411 51 22.508 51 22.2632C51 22.026 50.9587 21.8045 50.8758 21.6061Z" fill="#1697EB"/>
</g>
</g>
<g clip-path="url(#clip1_53_2651)">
<path d="M107 0H65C62.2386 0 60 2.23858 60 5V27C60 29.7614 62.2386 32 65 32H107C109.761 32 112 29.7614 112 27V5C112 2.23858 109.761 0 107 0Z" fill="white" fill-opacity="0.08"/>
<path fill-rule="evenodd" clip-rule="evenodd" d="M84.8174 12.718H86.892C86.892 12.718 88.946 12.6766 88.9253 14.5436C88.9048 15.9337 86.9338 16.1411 86.9338 16.1411H84.8176L84.8174 12.718ZM91.0238 19.4196C91.082 19.6911 91.2785 19.9904 91.9337 20.0212C92.805 20.0416 93.303 19.7096 93.303 19.7096V20.3528C93.303 20.3528 92.3486 20.5813 91.8921 20.5813C91.415 20.5813 90.0041 20.4773 90.0041 19.1704C90.0041 18.1125 91.166 17.7805 91.8297 17.7805C92.9916 17.8219 93.5517 18.237 93.531 19.4194C93.531 19.4365 91.6194 19.4237 91.0238 19.4196ZM91.0265 18.9005H92.6183C92.6183 18.9005 92.6183 18.2989 91.8507 18.2989C91.2732 18.2989 91.0843 18.6103 91.0265 18.9005ZM96.0621 18.2509C96.2925 18.001 96.6792 17.8009 97.3278 17.8009C98.6142 17.8009 98.8218 18.8798 98.8011 19.1702C98.7803 19.4606 98.6766 20.5601 97.1831 20.5601C96.6188 20.5601 96.2736 20.3676 96.0624 20.1286V20.477H95.0457V16.7426H96.0624L96.0621 18.2509ZM96.9338 19.9793C97.5354 19.9583 97.8051 19.4401 97.8051 19.1911C97.8051 18.9421 97.6596 18.4234 96.892 18.4234C96.2963 18.4234 96.1149 18.8734 96.0621 19.0932V19.3639C96.1145 19.588 96.2968 19.9793 96.9338 19.9793ZM105.71 19.8757L105.73 20.4568C105.73 20.4568 105.253 20.5603 104.942 20.5603C104.631 20.5603 103.821 20.3737 103.821 19.5851V18.3818H102.971V17.8426H103.821V17.1994H104.859V17.8426H105.71V18.3818H104.859V19.4194C104.859 19.4194 104.859 19.9381 105.274 19.9381C105.689 19.9381 105.71 19.8757 105.71 19.8757ZM102.556 13.2781H103.759V16.1618H104.776V13.2781H106V12.6763H102.556V13.2781ZM102.141 13.4233L102.266 12.8215C102.266 12.8215 101.747 12.5935 100.834 12.5935C99.942 12.5935 98.5106 13.0915 98.5106 14.44C98.5106 15.7678 100.025 16.2241 100.959 16.2241C101.892 16.2241 102.203 16.0789 102.203 16.0789L102.1 15.415C102.1 15.415 101.685 15.5395 100.979 15.5395C100.295 15.5188 99.5897 14.9794 99.5897 14.3779C99.6102 13.8384 100.232 13.2367 101.042 13.2367C101.664 13.2367 102.141 13.4233 102.141 13.4233ZM92.9709 12.6973C92.9709 12.6973 94.6722 12.6144 94.6722 13.6102C94.6722 14.4609 93.6974 14.5231 93.6974 14.5231C93.6974 14.5231 93.9669 14.5645 94.0916 14.7511C94.1951 14.917 94.8798 16.162 94.8798 16.162H93.8421C93.8421 16.162 93.6762 15.9544 93.5931 15.8095C93.531 15.6642 93.3442 15.3529 93.3442 15.3529C93.3442 15.3529 93.1992 14.8342 92.701 14.8342C92.6884 14.8342 92.4859 14.8265 92.3275 14.8205V16.162H91.3317V12.6973H92.9709ZM92.3277 14.2534H92.8673C92.8673 14.2534 93.6141 14.2117 93.6555 13.7554C93.6764 13.3198 92.9297 13.2574 92.9297 13.2574H92.3277V14.2534ZM96.4978 14.7928H98.1576V14.1496H96.4978V13.3612H98.3031V12.6973H95.4818V16.162H98.324V15.5395H96.498L96.4978 14.7928ZM100.543 17.4482H101.56V16.7426H100.543V17.4482ZM100.543 20.4773H101.56V17.8426H100.543V20.4773ZM89.465 16.162H90.4607V12.6973H89.465V16.162ZM84.8174 17.0335H86.892C86.892 17.0335 88.946 16.9916 88.9253 18.859C88.9048 20.249 86.9338 20.4568 86.9338 20.4568H84.8176L84.8174 17.0335ZM85.8341 19.8136H86.498C86.498 19.8136 87.8672 19.7305 87.8672 18.6724C87.8672 17.6143 86.4149 17.5105 86.4149 17.5105H85.8341V19.8136ZM85.8341 15.4981H86.498C86.498 15.4981 87.8672 15.3943 87.8672 14.3569C87.8672 13.2781 86.4149 13.1953 86.4149 13.1953H85.8341V15.4981ZM75.502 14.7805V21.7222C75.502 21.7222 71.4769 20.996 71.4769 18.2368C71.4772 16.0361 74.4567 15.0661 75.502 14.7805ZM75.502 14.651C73.0829 14.476 67.5975 15.6098 67.5975 18.0914C67.5975 19.7094 70.5021 22.0748 75.2323 22.1369C75.4189 22.1369 80.7923 21.9293 80.7095 16.1618C80.6398 11.3176 77.0142 10.4691 75.8548 10.3214V10.0262C80.4769 10.3195 84.1121 13.0992 84.1121 16.4729C84.1121 20.0414 80.0456 22.9458 75.0457 22.9458C70.0458 22.9458 66 20.0412 66 16.4729C66 12.9046 70.0456 10 75.0457 10C75.1989 10 75.3511 10.0027 75.5022 10.0082L75.502 14.651Z" fill="white"/>
</g>
<g clip-path="url(#clip2_53_2651)">
<path d="M167 0H125C122.239 0 120 2.23858 120 5V27C120 29.7614 122.239 32 125 32H167C169.761 32 172 29.7614 172 27V5C172 2.23858 169.761 0 167 0Z" fill="white" fill-opacity="0.08"/>
<path d="M142 32L172 23V27C172 29.7614 169.761 32 167 32H142Z" fill="#FD6020"/>
<path fill-rule="evenodd" clip-rule="evenodd" d="M162.192 13.1478C163.585 13.1478 164.352 13.7925 164.352 15.0103C164.422 15.9416 163.794 16.7296 162.958 16.8729L164.84 19.5234H163.376L161.774 16.9445H161.634V19.5234H160.45V13.1478H162.192ZM161.634 16.0848H161.983C162.749 16.0848 163.098 15.7267 163.098 15.0819C163.098 14.5089 162.749 14.1507 161.983 14.1507H161.634V16.0848ZM156.338 19.5234H159.683V18.4488H157.523V16.7296H159.613V15.655H157.523V14.2223H159.683V13.1478H156.338V19.5234ZM152.854 17.4459L151.251 13.1478H149.996L152.575 19.6667H153.202L155.78 13.1478H154.526L152.854 17.4459ZM138.707 16.3714C138.707 18.1623 140.101 19.6667 141.843 19.6667C142.401 19.6667 142.889 19.5234 143.376 19.3085V17.8758C143.028 18.3056 142.54 18.5921 141.983 18.5921C140.868 18.5921 139.962 17.7325 139.962 16.5863V16.4431C139.892 15.2969 140.798 14.294 141.913 14.2223C142.47 14.2223 143.028 14.5089 143.376 14.9387V13.506C142.958 13.2194 142.401 13.1478 141.913 13.1478C140.101 13.0045 138.707 14.5089 138.707 16.3714ZM136.547 15.5834C135.85 15.2969 135.641 15.1536 135.641 14.7954C135.711 14.3656 136.059 14.0074 136.477 14.0791C136.826 14.0791 137.174 14.294 137.453 14.5805L138.08 13.7209C137.592 13.2911 136.965 13.0045 136.338 13.0045C135.362 12.9329 134.526 13.7209 134.457 14.7238V14.7954C134.457 15.6551 134.805 16.1565 135.92 16.5147C136.199 16.5863 136.477 16.7296 136.756 16.8729C136.965 17.0161 137.105 17.231 137.105 17.5176C137.105 18.019 136.686 18.4489 136.268 18.4489H136.199C135.641 18.4489 135.153 18.0907 134.944 17.5892L134.178 18.3772C134.596 19.1652 135.432 19.595 136.268 19.595C137.383 19.6667 138.289 18.807 138.359 17.6609V17.446C138.289 16.5863 137.941 16.1565 136.547 15.5834ZM132.505 19.5234H133.69V13.1478H132.505V19.5234ZM127 13.1478H128.742H129.091C130.763 13.2194 132.087 14.6521 132.017 16.3714C132.017 17.3027 131.599 18.1623 130.902 18.807C130.275 19.3085 129.509 19.595 128.742 19.5234H127V13.1478ZM128.533 18.4489C129.09 18.5205 129.718 18.3056 130.136 17.9474C130.554 17.5176 130.763 16.9445 130.763 16.2998C130.763 15.7267 130.554 15.1536 130.136 14.7238C129.718 14.3656 129.09 14.1507 128.533 14.2223H128.185V18.4489H128.533Z" fill="white"/>
<path fill-rule="evenodd" clip-rule="evenodd" d="M146.93 13C145.188 13 143.725 14.4327 143.725 16.2953C143.725 18.0862 145.118 19.5905 146.93 19.6621C148.742 19.7338 150.136 18.2294 150.205 16.3669C150.136 14.5044 148.742 13 146.93 13Z" fill="#FD6020"/>
</g>
<g clip-path="url(#clip3_53_2651)">
<path d="M227 0H185C182.239 0 180 2.23858 180 5V27C180 29.7614 182.239 32 185 32H227C229.761 32 232 29.7614 232 27V5C232 2.23858 229.761 0 227 0Z" fill="white" fill-opacity="0.08"/>
<path d="M211.058 17.7157H212.596C212.64 17.7157 212.743 17.701 212.787 17.701C213.08 17.6424 213.329 17.3787 213.329 17.0124C213.329 16.6607 213.08 16.397 212.787 16.3237C212.743 16.3091 212.655 16.3091 212.596 16.3091H211.058V17.7157Z" fill="url(#paint0_linear_53_2651)"/>
<path d="M212.423 8C210.957 8 209.756 9.18681 209.756 10.6667V13.4359H213.521C213.609 13.4359 213.712 13.4359 213.785 13.4506C214.635 13.4945 215.265 13.9341 215.265 14.696C215.265 15.2967 214.84 15.8095 214.049 15.9121V15.9414C214.913 16 215.573 16.4835 215.573 17.2308C215.573 18.0366 214.84 18.5641 213.873 18.5641H209.741V23.9854H213.653C215.119 23.9854 216.32 22.7985 216.32 21.3187V8H212.423Z" fill="#49A25A"/>
<path d="M213.138 14.8732C213.138 14.5216 212.889 14.2871 212.596 14.2432C212.567 14.2432 212.494 14.2285 212.45 14.2285H211.058V15.5179H212.45C212.494 15.5179 212.581 15.5179 212.596 15.5032C212.889 15.4593 213.138 15.2249 213.138 14.8732Z" fill="url(#paint1_linear_53_2651)"/>
<path d="M197.681 8C196.216 8 195.015 9.18681 195.015 10.6667V17.2454C195.762 17.6117 196.539 17.8462 197.315 17.8462C198.238 17.8462 198.736 17.2894 198.736 16.5275V13.4212H201.022V16.5128C201.022 17.7143 200.275 18.696 197.74 18.696C196.202 18.696 195 18.359 195 18.359V23.9707H198.912C200.377 23.9707 201.579 22.7839 201.579 21.304V8H197.681Z" fill="#2C71B5"/>
<path d="M205.05 8C203.585 8 202.384 9.18681 202.384 10.6667V14.1538C203.058 13.5824 204.23 13.2161 206.12 13.304C207.131 13.348 208.215 13.6264 208.215 13.6264V14.7546C207.673 14.4762 207.028 14.2271 206.193 14.1685C204.757 14.0659 203.893 14.7692 203.893 16C203.893 17.2454 204.757 17.9487 206.193 17.8315C207.028 17.7729 207.673 17.5092 208.215 17.2454V18.3736C208.215 18.3736 207.146 18.652 206.12 18.696C204.23 18.7839 203.058 18.4176 202.384 17.8462V24H206.296C207.761 24 208.962 22.8132 208.962 21.3333V8H205.05Z" fill="#DA3831"/>
</g>
<defs>
<linearGradient id="paint0_linear_53_2651" x1="209.751" y1="17.0141" x2="216.335" y2="17.0141" gradientUnits="userSpaceOnUse">
<stop stop-color="#007940"/>
<stop offset="0.2285" stop-color="#00873F"/>
<stop offset="0.7433" stop-color="#40A737"/>
<stop offset="1" stop-color="#5CB531"/>
</linearGradient>
<linearGradient id="paint1_linear_53_2651" x1="209.751" y1="14.8714" x2="216.336" y2="14.8714" gradientUnits="userSpaceOnUse">
<stop stop-color="#007940"/>
<stop offset="0.2285" stop-color="#00873F"/>
<stop offset="0.7433" stop-color="#40A737"/>
<stop offset="1" stop-color="#5CB531"/>
</linearGradient>
<clipPath id="clip0_53_2651">
<rect width="52" height="32" fill="white"/>
</clipPath>
<clipPath id="clip1_53_2651">
<rect width="52" height="32" fill="white" transform="translate(60)"/>
</clipPath>
<clipPath id="clip2_53_2651">
<rect width="52" height="32" fill="white" transform="translate(120)"/>
</clipPath>
<clipPath id="clip3_53_2651">
<rect width="52" height="32" fill="white" transform="translate(180)"/>
</clipPath>
</defs>
</svg>
